<?xml version="1.0" encoding="UTF-8"?>
<svg width="100px" height="100px" viewBox="0 0 100 100" version="1.1" xmlns="http://www.w3.org/2000/svg" xmlns:xlink="http://www.w3.org/1999/xlink">
    <!-- Generator: Sketch 3.8.1 (29687) - http://www.bohemiancoding.com/sketch -->
    <title>ic_launcher</title>
    <desc>Created with Sketch.</desc>
    <defs></defs>
    <g id="Page-1" stroke="none" stroke-width="1" fill="none" fill-rule="evenodd">
        <g id="ic_launcher">
            <g id="svgg">
                <path d="M99.925187,9.91144279 C99.925187,10.0985075 99.9451372,10.1748756 99.9698254,10.0813433 C99.9942643,9.98781095 99.9942643,9.83482587 99.9698254,9.74129353 C99.9451372,9.64776119 99.925187,9.72437811 99.925187,9.91144279 M98.5770574,42.3664179 C98.5770574,43.0878109 98.5922693,43.3828358 98.6109726,43.0221393 C98.6296758,42.6614428 98.6296758,42.0711443 98.6109726,41.7104478 C98.5922693,41.3497512 98.5770574,41.6447761 98.5770574,42.3664179" id="path0" fill="#000000"></path>
                <path d="M51.4154613,8.42636816 C51.5628429,8.44850746 51.8037406,8.44850746 51.9511222,8.42636816 C52.0985037,8.4039801 51.9780549,8.3858209 51.6832918,8.3858209 C51.3885287,8.3858209 51.2680798,8.4039801 51.4154613,8.42636816 M50.0047382,8.52412935 C50.1798005,8.54577114 50.4426434,8.54552239 50.5890274,8.52313433 C50.7354115,8.50099502 50.5922693,8.48333333 50.2708229,8.48383085 C49.9493766,8.48457711 49.8296758,8.50273632 50.0047382,8.52412935 M53.072818,8.52363184 C53.2209476,8.54577114 53.4399002,8.54527363 53.5598504,8.5221393 C53.6795511,8.49925373 53.5586035,8.48084577 53.2905237,8.48159204 C53.0226933,8.48233831 52.9246883,8.50124378 53.072818,8.52363184 M49.174813,8.61791045 C49.2685786,8.64253731 49.4221945,8.64253731 49.5159601,8.61791045 C49.6097257,8.59353234 49.5329177,8.57363184 49.3453865,8.57363184 C49.1578554,8.57363184 49.0810474,8.59353234 49.174813,8.61791045 M53.9481297,8.61791045 C54.0418953,8.64253731 54.1952618,8.64253731 54.2890274,8.61791045 C54.382793,8.59353234 54.3062344,8.57363184 54.1187032,8.57363184 C53.9311721,8.57363184 53.8543641,8.59353234 53.9481297,8.61791045 M54.9221945,8.71890547 C55.123192,8.739801 55.4518703,8.739801 55.6528678,8.71890547 C55.8538653,8.69800995 55.6892768,8.68084577 55.2875312,8.68084577 C54.8857855,8.68084577 54.7214464,8.69800995 54.9221945,8.71890547 M59.5007481,9.10646766 C59.6478803,9.12860697 59.8890274,9.12860697 60.036409,9.10646766 C60.1837905,9.0840796 60.0633416,9.0659204 59.7685786,9.0659204 C59.4738155,9.0659204 59.3533666,9.0840796 59.5007481,9.10646766 M19.9476309,9.62263682 C19.882793,9.7261194 19.5775561,9.94079602 19.2693267,10.0995025 C18.9613466,10.2579602 18.7433915,10.3900498 18.7852868,10.3925373 C19.0763092,10.4104478 20.2389027,9.60721393 20.1092269,9.4778607 C20.0850374,9.4539801 20.0124688,9.51915423 19.9476309,9.62263682 M63.6895262,9.49253731 C63.7832918,9.51691542 63.9366584,9.51691542 64.0304239,9.49253731 C64.1241895,9.4681592 64.0473815,9.44800995 63.8598504,9.44800995 C63.6723192,9.44800995 63.5957606,9.4681592 63.6895262,9.49253731 M64.7134663,9.59154229 C64.8346633,9.61467662 65.0099751,9.61368159 65.1029925,9.58955224 C65.1962594,9.56517413 65.0970075,9.5460199 64.882793,9.54726368 C64.6683292,9.54825871 64.5922693,9.5681592 64.7134663,9.59154229 M65.6875312,9.68855721 C65.8087282,9.7119403 65.9840399,9.71094527 66.0770574,9.68656716 C66.1703242,9.66218905 66.0710723,9.64328358 65.8568579,9.64427861 C65.6426434,9.64552239 65.5663342,9.66542289 65.6875312,9.68855721 M66.6117207,9.7840796 C66.7054863,9.80845771 66.8588529,9.80845771 66.9526185,9.7840796 C67.046384,9.75970149 66.9698254,9.73955224 66.7822943,9.73955224 C66.5947631,9.73955224 66.5179551,9.75970149 66.6117207,9.7840796 M67.4408978,9.88283582 C67.5620948,9.90621891 67.7374065,9.90522388 67.8306733,9.88109453 C67.9236908,9.85671642 67.8246883,9.83756219 67.6102244,9.83880597 C67.39601,9.839801 67.3197007,9.85970149 67.4408978,9.88283582 M68.3164589,9.97985075 C68.4371571,10.0032338 68.634414,10.0032338 68.7548628,9.97985075 C68.8753117,9.95671642 68.776808,9.93781095 68.5356608,9.93781095 C68.2945137,9.93781095 68.19601,9.95671642 68.3164589,9.97985075 M69.4366584,10.0756219 C69.5304239,10.1 69.6840399,10.1 69.7778055,10.0756219 C69.8715711,10.050995 69.7947631,10.0310945 69.6072319,10.0310945 C69.4197007,10.0310945 69.3428928,10.050995 69.4366584,10.0756219 M17.9541147,10.7445274 C17.4506234,11.0733831 17.49202,11.1400498 18.0027431,10.8226368 C18.494015,10.5174129 18.525187,10.4925373 18.4087282,10.5 C18.359601,10.5032338 18.1551122,10.6131841 17.9541147,10.7445274 M77.9117207,10.9557214 C78.6483791,10.9721393 79.8538653,10.9721393 80.5905237,10.9557214 C81.327182,10.9393035 80.7244389,10.9256219 79.2511222,10.9256219 C77.7778055,10.9256219 77.1750623,10.9393035 77.9117207,10.9557214 M82.9301746,11.0507463 C83.1052369,11.0723881 83.3683292,11.0718905 83.5147132,11.0497512 C83.6610973,11.0276119 83.5177057,11.0097015 83.1962594,11.0104478 C82.874813,11.0109453 82.7551122,11.0291045 82.9301746,11.0507463 M84.0486284,11.1445274 C84.142394,11.1689055 84.2957606,11.1689055 84.3895262,11.1445274 C84.4832918,11.1199005 84.4067332,11.1 84.219202,11.1 C84.0316708,11.1 83.9548628,11.1199005 84.0486284,11.1445274 M85.0715711,11.2457711 C85.2992519,11.2661692 85.6718204,11.2661692 85.8995012,11.2457711 C86.127182,11.2253731 85.9408978,11.2084577 85.4855362,11.2084577 C85.0301746,11.2084577 84.8438903,11.2253731 85.0715711,11.2457711 M17.144389,11.4952736 C17.1177057,11.5649254 17.1082294,12.2097015 17.1236908,12.928607 L17.1513716,14.2355721 L17.1997506,12.80199 C17.2471322,11.390796 17.2408978,11.2445274 17.144389,11.4952736 M99.6042394,14.1139303 C99.6009975,14.1808458 99.5665835,14.55199 99.5276808,14.938806 C99.4887781,15.3256219 99.486783,15.6097015 99.5229426,15.570398 C99.5593516,15.5308458 99.6097257,15.2363184 99.6349127,14.9156716 C99.6600998,14.5950249 99.7134663,14.2562189 99.7533666,14.1626866 C99.7975062,14.0594527 99.7835411,13.9925373 99.7182045,13.9925373 C99.6588529,13.9925373 99.6077307,14.0472637 99.6042394,14.1139303 M43.527182,16.1303483 C43.527182,16.3708955 43.5461347,16.4691542 43.5693267,16.349005 C43.5925187,16.228607 43.5925187,16.0318408 43.5693267,15.9116915 C43.5461347,15.7912935 43.527182,15.889801 43.527182,16.1303483 M99.3182045,18.4624378 C99.2486284,19.9606965 99.213217,21.2079602 99.2391521,21.2338308 C99.2648379,21.2597015 99.3428928,20.0547264 99.4122195,18.5562189 C99.4815461,17.0577114 99.517207,15.8104478 99.4912718,15.7848259 C99.465586,15.7589552 99.3875312,16.9639303 99.3182045,18.4624378 M43.432419,17.1992537 C43.432419,17.4930348 43.4506234,17.6134328 43.4730673,17.4664179 C43.4952618,17.319403 43.4952618,17.0788557 43.4730673,16.9318408 C43.4506234,16.7850746 43.432419,16.9052239 43.432419,17.1992537 M17.0389027,17.6363184 C17.0386534,18.1174129 17.0551122,18.3263682 17.0755611,18.100995 C17.09601,17.8753731 17.0962594,17.4818408 17.0760599,17.2263682 C17.0558603,16.9708955 17.0391521,17.1554726 17.0389027,17.6363184 M43.3349127,18.4624378 C43.3349127,18.7562189 43.3533666,18.8766169 43.3755611,18.729602 C43.398005,18.5825871 43.398005,18.3420398 43.3755611,18.1952736 C43.3533666,18.0482587 43.3349127,18.168408 43.3349127,18.4624378 M87.261596,19.3368159 C87.261596,19.5238806 87.2815461,19.6004975 87.305985,19.5069652 C87.3306733,19.4134328 87.3306733,19.2604478 87.305985,19.1669154 C87.2815461,19.0733831 87.261596,19.1497512 87.261596,19.3368159 M43.2396509,19.8228856 C43.2396509,20.1701493 43.2573566,20.3121891 43.278803,20.1385572 C43.3004988,19.9649254 43.3004988,19.680597 43.278803,19.5069652 C43.2573566,19.3333333 43.2396509,19.4753731 43.2396509,19.8228856 M16.9486284,22.3492537 C16.9486284,23.5517413 16.9625935,24.0435323 16.9795511,23.4422886 C16.9967581,22.8410448 16.9967581,21.8572139 16.9795511,21.2559701 C16.9625935,20.6547264 16.9486284,21.1467662 16.9486284,22.3492537 M43.1421446,21.3776119 C43.1421446,21.7248756 43.1598504,21.8669154 43.1815461,21.6932836 C43.2029925,21.5196517 43.2029925,21.2353234 43.1815461,21.0616915 C43.1598504,20.8880597 43.1421446,21.0300995 43.1421446,21.3776119 M99.1583541,22.25199 C99.1583541,22.7597015 99.174813,22.9674129 99.1947631,22.7136816 C99.2149626,22.4597015 99.2149626,22.0442786 99.1947631,21.7905473 C99.174813,21.5365672 99.1583541,21.7442786 99.1583541,22.25199 M80.8523691,21.9848259 L80.5660848,22.3004975 L80.882793,22.0151741 C81.0568579,21.858209 81.1992519,21.7161692 81.1992519,21.6995025 C81.1992519,21.6243781 81.1189526,21.6905473 80.8523691,21.9848259 M43.0401496,22.9323383 C43.0401496,23.1726368 43.0591022,23.2711443 43.0822943,23.1507463 C43.1054863,23.030597 43.1054863,22.8338308 43.0822943,22.7136816 C43.0591022,22.5932836 43.0401496,22.691791 43.0401496,22.9323383 M99.0610973,24.4870647 C99.0610973,24.9947761 99.0773067,25.2022388 99.0975062,24.9485075 C99.1174564,24.6945274 99.1174564,24.2793532 99.0975062,24.0253731 C99.0773067,23.7716418 99.0610973,23.9791045 99.0610973,24.4870647 M93.6907731,24.000995 C93.6907731,24.1880597 93.7107232,24.2646766 93.7354115,24.1711443 C93.7598504,24.0776119 93.7598504,23.9246269 93.7354115,23.8310945 C93.7107232,23.7375622 93.6907731,23.8139303 93.6907731,24.000995 M99.3493766,24.7783582 C99.3493766,25.1258706 99.3670823,25.2679104 99.3885287,25.0942786 C99.4102244,24.9206468 99.4102244,24.6363184 99.3885287,24.4626866 C99.3670823,24.2890547 99.3493766,24.4310945 99.3493766,24.7783582 M78.076808,24.6569652 L77.7411471,25.021393 L78.1064838,24.6865672 C78.446384,24.3748756 78.5164589,24.2925373 78.4421446,24.2925373 C78.4259352,24.2925373 78.261596,24.4564677 78.076808,24.6569652 M93.5985037,25.021393 C93.5992519,25.2885572 93.6182045,25.3863184 93.6406484,25.2385572 C93.6630923,25.0910448 93.6623441,24.8723881 93.6394015,24.7527363 C93.6162095,24.6333333 93.598005,24.7542289 93.5985037,25.021393 M42.9426434,25.2644279 C42.9426434,25.5047264 42.961596,25.6032338 42.984788,25.4828358 C43.0082294,25.3626866 43.0082294,25.1659204 42.984788,25.0457711 C42.961596,24.9253731 42.9426434,25.0238806 42.9426434,25.2644279 M77.0531172,25.7743781 L76.7670823,26.0902985 L77.0835411,25.8049751 C77.2578554,25.6477612 77.4002494,25.5057214 77.4002494,25.4890547 C77.4002494,25.4139303 77.3199501,25.4800995 77.0531172,25.7743781 M93.49601,26.2360697 C93.49601,26.4231343 93.5159601,26.4995025 93.540399,26.4059701 C93.5650873,26.3124378 93.5650873,26.1594527 93.540399,26.0659204 C93.5159601,25.9723881 93.49601,26.049005 93.49601,26.2360697 M16.8446384,27.1104478 C16.8446384,27.6181592 16.8610973,27.8258706 16.8810474,27.5721393 C16.9012469,27.3181592 16.9012469,26.9027363 16.8810474,26.649005 C16.8610973,26.3950249 16.8446384,26.6027363 16.8446384,27.1104478 M98.959601,27.1104478 C98.959601,27.4579602 98.9773067,27.6 98.9990025,27.4263682 C99.0204489,27.2527363 99.0204489,26.968408 98.9990025,26.7947761 C98.9773067,26.6211443 98.959601,26.7631841 98.959601,27.1104478 M42.8478803,27.790796 C42.8478803,28.0845771 42.8660848,28.2049751 42.8885287,28.0579602 C42.9107232,27.9109453 42.9107232,27.670398 42.8885287,27.5236318 C42.8660848,27.3766169 42.8478803,27.4967662 42.8478803,27.790796 M93.4072319,27.8878109 C93.4072319,28.2353234 93.4246883,28.3773632 93.446384,28.2037313 C93.4680798,28.0300995 93.4680798,27.7457711 93.446384,27.5721393 C93.4246883,27.3985075 93.4072319,27.5405473 93.4072319,27.8878109 M42.8478803,28.8597015 C42.8478803,29.1534826 42.8660848,29.2738806 42.8885287,29.1268657 C42.9107232,28.9798507 42.9107232,28.7393035 42.8885287,28.5922886 C42.8660848,28.4455224 42.8478803,28.5656716 42.8478803,28.8597015 M98.8643392,29.3940299 C98.8648379,29.8216418 98.8820449,29.9843284 98.9024938,29.7559701 C98.923192,29.5273632 98.9226933,29.1776119 98.9017456,28.978607 C98.8810474,28.779602 98.8640898,28.9664179 98.8643392,29.3940299 M87.8461347,29.539801 C87.8461347,29.7268657 87.8660848,29.8034826 87.8905237,29.7099502 C87.9149626,29.6164179 87.9149626,29.4631841 87.8905237,29.3696517 C87.8660848,29.2761194 87.8461347,29.3527363 87.8461347,29.539801 M16.7508728,31.0945274 C16.7508728,31.869403 16.7660848,32.1865672 16.7845387,31.799005 C16.8029925,31.4114428 16.8029925,30.7776119 16.7845387,30.3900498 C16.7660848,30.0024876 16.7508728,30.3196517 16.7508728,31.0945274 M42.7506234,30.9002488 C42.7506234,31.1940299 42.7688279,31.3144279 42.7910224,31.1674129 C42.8134663,31.020398 42.8134663,30.7798507 42.7910224,30.6330846 C42.7688279,30.4860697 42.7506234,30.6062189 42.7506234,30.9002488 M98.765586,31.2402985 C98.7660848,31.6144279 98.7835411,31.7554726 98.8047382,31.5539801 C98.8259352,31.3522388 98.8254364,31.0462687 98.80399,30.8736318 C98.7825436,30.7012438 98.7650873,30.8661692 98.765586,31.2402985 M93.0164589,31.920398 C93.0169576,32.2410448 93.0351621,32.3606965 93.0568579,32.1860697 C93.0785536,32.011194 93.0780549,31.749005 93.0558603,31.6029851 C93.0336658,31.4569652 93.0159601,31.5997512 93.0164589,31.920398 M98.6653367,32.940796 C98.6653367,33.2348259 98.6837905,33.3549751 98.705985,33.2079602 C98.7284289,33.0609453 98.7284289,32.820398 98.705985,32.6736318 C98.6837905,32.5266169 98.6653367,32.6467662 98.6653367,32.940796 M42.6591022,34.1067164 C42.6591022,34.6144279 42.6755611,34.8221393 42.6955112,34.568408 C42.7154613,34.3144279 42.7154613,33.899005 42.6955112,33.6452736 C42.6755611,33.3912935 42.6591022,33.599005 42.6591022,34.1067164 M16.6528678,34.5927861 C16.6528678,35.3141791 16.6683292,35.609204 16.6870324,35.2485075 C16.7057357,34.8878109 16.7057357,34.2975124 16.6870324,33.9368159 C16.6683292,33.5761194 16.6528678,33.8711443 16.6528678,34.5927861 M92.9199501,34.3982587 C92.9199501,34.7457711 92.9376559,34.8878109 92.9593516,34.7141791 C92.9810474,34.5405473 92.9810474,34.2562189 92.9593516,34.0825871 C92.9376559,33.9087065 92.9199501,34.050995 92.9199501,34.3982587 M98.5633416,34.3497512 C98.5643392,34.5634328 98.5842893,34.6395522 98.6077307,34.5186567 C98.6309227,34.3977612 98.6301746,34.2228856 98.6057357,34.1298507 C98.5812968,34.0370647 98.5623441,34.1360697 98.5633416,34.3497512 M58.6523691,35.0721393 C58.6134663,35.1348259 58.6518703,35.1495025 58.7531172,35.1106965 C58.8600998,35.0699005 58.9842893,35.1293532 59.1109726,35.2820896 L59.3054863,35.5156716 L59.1600998,35.2728856 C59.0022444,35.0089552 58.7526185,34.910199 58.6523691,35.0721393 M98.4705736,35.5644279 C98.4705736,35.858209 98.4887781,35.978607 98.5112219,35.831592 C98.5334165,35.6845771 98.5334165,35.4440299 98.5112219,35.2972637 C98.4887781,35.1502488 98.4705736,35.270398 98.4705736,35.5644279 M92.8234414,36.8761194 C92.8239401,37.2502488 92.8413965,37.3912935 92.8625935,37.189801 C92.8835411,36.9883085 92.8832918,36.6820896 92.8618454,36.5097015 C92.8401496,36.3370647 92.8229426,36.50199 92.8234414,36.8761194 M80.1279302,37.070398 C79.7286783,37.471393 79.4239401,37.7992537 79.4508728,37.7992537 C79.4775561,37.7992537 79.8261845,37.471393 80.225187,37.070398 C80.6244389,36.6696517 80.9289277,36.341791 80.9022444,36.341791 C80.8755611,36.341791 80.5269327,36.6696517 80.1279302,37.070398 M98.3785536,37.9450249 C98.3783042,38.4261194 98.3947631,38.6350746 98.415212,38.4094527 C98.4356608,38.1840796 98.4359102,37.7905473 98.4157107,37.5350746 C98.3955112,37.279602 98.378803,37.4639303 98.3785536,37.9450249 M16.6374065,37.5077114 C16.6374065,37.6947761 16.6573566,37.771393 16.6817955,37.6778607 C16.7064838,37.5843284 16.7064838,37.4313433 16.6817955,37.3378109 C16.6573566,37.2442786 16.6374065,37.3206468 16.6374065,37.5077114 M78.3229426,38.7952736 L77.6438903,39.4997512 L78.3501247,38.8221393 C78.738404,38.4495025 79.0563591,38.1325871 79.0563591,38.1176617 C79.0563591,38.0465174 78.9538653,38.1410448 78.3229426,38.7952736 M16.5603491,41.2487562 C16.5603491,42.7987562 16.5738155,43.4191542 16.5902743,42.6276119 C16.6064838,41.8360697 16.6064838,40.5679104 16.5900249,39.8097015 C16.5735661,39.0512438 16.5603491,39.699005 16.5603491,41.2487562 M42.4640898,39.7427861 C42.4640898,40.2504975 42.4805486,40.458209 42.5007481,40.2042289 C42.5206983,39.9504975 42.5206983,39.5350746 42.5007481,39.2810945 C42.4805486,39.0273632 42.4640898,39.2350746 42.4640898,39.7427861 M92.7187032,39.5970149 C92.7197007,39.8106965 92.7396509,39.8868159 92.7628429,39.7659204 C92.7862843,39.6450249 92.7852868,39.4701493 92.7610973,39.3771144 C92.7366584,39.2843284 92.7174564,39.3830846 92.7187032,39.5970149 M98.1491272,42.6577114 C98.078803,44.5293532 98.0426434,46.0820896 98.0688279,46.108209 C98.0947631,46.1340796 98.1735661,44.6241294 98.2438903,42.7522388 C98.3142145,40.880597 98.3503741,39.3278607 98.3241895,39.30199 C98.2982544,39.2761194 98.2194514,40.7860697 98.1491272,42.6577114 M49.9054863,39.9925373 C49.5413965,40.189801 49.563591,40.2718905 49.9299252,40.0828358 C50.0905237,40 50.2221945,39.911194 50.2221945,39.8860697 C50.2221945,39.8233831 50.2117207,39.8268657 49.9054863,39.9925373 M66.7526185,40.1810945 C66.663591,40.3676617 66.6107232,40.5201493 66.6351621,40.5201493 C66.701995,40.5201493 66.9975062,39.9251244 66.9531172,39.880597 C66.9319202,39.8594527 66.8416459,39.9947761 66.7526185,40.1810945 M98.5653367,40.7144279 C98.5653367,40.9549751 98.5842893,41.0532338 98.6074813,40.9330846 C98.6306733,40.8126866 98.6306733,40.6159204 98.6074813,40.4957711 C98.5842893,40.3756219 98.5653367,40.4738806 98.5653367,40.7144279 M75.2054863,42.00199 L74.6239401,42.609204 L75.2329177,42.0293532 C75.567581,41.710199 75.8416459,41.4370647 75.8416459,41.4218905 C75.8416459,41.3502488 75.7453865,41.4378109 75.2054863,42.00199 M92.621197,42.1233831 C92.6221945,42.3370647 92.6421446,42.4131841 92.665586,42.2922886 C92.6887781,42.171393 92.6880299,41.9965174 92.663591,41.9034826 C92.6391521,41.8106965 92.6201995,41.9097015 92.621197,42.1233831 M42.4610973,43.7753731 C42.461596,44.1492537 42.4790524,44.2905473 42.5002494,44.088806 C42.521197,43.8873134 42.5209476,43.5810945 42.4995012,43.4087065 C42.4778055,43.2363184 42.4605985,43.4012438 42.4610973,43.7753731 M98.5700748,44.2124378 C98.5700748,44.5599502 98.5877805,44.70199 98.6092269,44.5283582 C98.6309227,44.3547264 98.6309227,44.070398 98.6092269,43.8967662 C98.5877805,43.7231343 98.5700748,43.8651741 98.5700748,44.2124378 M92.5311721,44.8440299 C92.5316708,45.2181592 92.5491272,45.3594527 92.5703242,45.1577114 C92.5915212,44.9562189 92.5910224,44.65 92.5695761,44.4776119 C92.5481297,44.3049751 92.5306733,44.4701493 92.5311721,44.8440299 M54.898005,45.2146766 C54.898005,45.2313433 55.040399,45.3733831 55.2144638,45.5303483 L55.5311721,45.8159204 L55.2448878,45.5 C54.9783042,45.2057214 54.898005,45.1395522 54.898005,45.2146766 M16.4543641,46.5932836 C16.4541147,47.0741294 16.4705736,47.2833333 16.4910224,47.0577114 C16.5114713,46.8320896 16.5117207,46.4385572 16.4915212,46.1830846 C16.4715711,45.9276119 16.4548628,46.1121891 16.4543641,46.5932836 M56.0668329,46.3017413 C56.2486284,46.488806 56.419202,46.641791 56.4461347,46.641791 C56.472818,46.641791 56.3461347,46.488806 56.1643392,46.3017413 C55.9825436,46.1146766 55.8119701,45.9616915 55.7850374,45.9616915 C55.7583541,45.9616915 55.8850374,46.1146766 56.0668329,46.3017413 M97.9915212,47.759204 C97.9917706,48.4004975 98.0074813,48.6502488 98.0264339,48.3141791 C98.0456359,47.9781095 98.0453865,47.4532338 98.0261845,47.14801 C98.0069825,46.8430348 97.9912718,47.1179104 97.9915212,47.759204 M92.4329177,47.3218905 C92.4329177,47.669403 92.4506234,47.8114428 92.4723192,47.6378109 C92.4937656,47.4641791 92.4937656,47.1798507 92.4723192,47.0062189 C92.4506234,46.8325871 92.4329177,46.9746269 92.4329177,47.3218905 M57.8690773,48.0022388 C58.4027431,48.5365672 58.8613466,48.9738806 58.8882793,48.9738806 C58.9149626,48.9738806 58.5002494,48.5365672 57.9663342,48.0022388 C57.4326683,47.4676617 56.9740648,47.030597 56.9471322,47.030597 C56.9204489,47.030597 57.3351621,47.4676617 57.8690773,48.0022388 M42.3563591,47.6621891 C42.3573566,47.8758706 42.3773067,47.95199 42.4004988,47.8310945 C42.4239401,47.710199 42.4229426,47.5353234 42.3985037,47.4422886 C42.3743142,47.3495025 42.3551122,47.4482587 42.3563591,47.6621891 M16.3628429,49.9455224 C16.3628429,50.9343284 16.3773067,51.338806 16.3950125,50.8445274 C16.4127182,50.35 16.4127182,49.5410448 16.3950125,49.0467662 C16.3773067,48.5524876 16.3628429,48.9569652 16.3628429,49.9455224 M97.8109726,49.7054726 C97.772818,50.1126866 97.7620948,50.4664179 97.7872818,50.4915423 C97.8124688,50.5166667 97.8645885,50.2042289 97.9027431,49.7970149 C97.9408978,49.389801 97.9516209,49.0360697 97.9264339,49.0109453 C97.9012469,48.9858209 97.8493766,49.2982587 97.8109726,49.7054726 M92.3269327,49.4597015 C92.3269327,49.6467662 92.3471322,49.7233831 92.3715711,49.6298507 C92.39601,49.5363184 92.39601,49.3833333 92.3715711,49.289801 C92.3471322,49.1962687 92.3269327,49.2726368 92.3269327,49.4597015 M92.2296758,50.3343284 C92.2296758,50.521393 92.2496259,50.5977612 92.2740648,50.5042289 C92.2987531,50.4106965 92.2987531,50.2577114 92.2740648,50.1641791 C92.2496259,50.0706468 92.2296758,50.1472637 92.2296758,50.3343284 M42.2783042,53.6380597 C42.2783042,55.588806 42.2912718,56.3868159 42.3072319,55.4114428 C42.3229426,54.4360697 42.3229426,52.8400498 42.3072319,51.8646766 C42.2912718,50.8893035 42.2783042,51.6873134 42.2783042,53.6380597 M60.9862843,51.2087065 C61.4660848,51.689801 61.880798,52.0833333 61.9074813,52.0833333 C61.934414,52.0833333 61.563591,51.689801 61.0835411,51.2087065 C60.6037406,50.7278607 60.1890274,50.3343284 60.1623441,50.3343284 C60.1354115,50.3343284 60.5062344,50.7278607 60.9862843,51.2087065 M92.1341646,51.4517413 C92.1351621,51.6654229 92.1551122,51.7415423 92.1785536,51.6206468 C92.2017456,51.4997512 92.2009975,51.3248756 92.1765586,51.2318408 C92.1521197,51.1390547 92.1331671,51.2380597 92.1341646,51.4517413 M62.5935162,52.8121891 C62.8845387,53.1059701 63.1446384,53.3465174 63.1713217,53.3465174 C63.198005,53.3465174 62.9820449,53.1059701 62.6910224,52.8121891 C62.4,52.5181592 62.1399002,52.2776119 62.113217,52.2776119 C62.0862843,52.2776119 62.3024938,52.5181592 62.5935162,52.8121891 M97.686783,53.1037313 C97.6877805,53.3174129 97.7077307,53.3935323 97.7309227,53.2726368 C97.7543641,53.1517413 97.7533666,52.9768657 97.7289277,52.8838308 C97.7047382,52.7910448 97.6855362,52.889801 97.686783,53.1037313 M92.0399002,53.29801 C92.0406484,53.5651741 92.059601,53.6629353 92.0820449,53.5151741 C92.1044888,53.3676617 92.1037406,53.149005 92.080798,53.0293532 C92.057606,52.9099502 92.0394015,53.0308458 92.0399002,53.29801 M91.9374065,54.4154229 C91.9374065,54.6024876 91.9573566,54.6791045 91.9817955,54.5855721 C92.0064838,54.4920398 92.0064838,54.338806 91.9817955,54.2452736 C91.9573566,54.1517413 91.9374065,54.2283582 91.9374065,54.4154229 M97.4897756,54.6097015 C97.4897756,54.7967662 97.5099751,54.8733831 97.534414,54.7798507 C97.5588529,54.6863184 97.5588529,54.5333333 97.534414,54.439801 C97.5099751,54.3462687 97.4897756,54.4226368 97.4897756,54.6097015 M16.2600998,56.0674129 C16.2600998,56.5751244 16.2765586,56.7828358 16.2967581,56.5288557 C16.3167082,56.2751244 16.3167082,55.8597015 16.2967581,55.6057214 C16.2765586,55.35199 16.2600998,55.5597015 16.2600998,56.0674129 M16.163591,58.3022388 C16.163591,58.8634328 16.1798005,59.0930348 16.1995012,58.8124378 C16.219202,58.5318408 16.219202,58.0726368 16.1995012,57.7920398 C16.1798005,57.5114428 16.163591,57.7410448 16.163591,58.3022388 M15.6778055,60.5858209 C15.6780549,61.2271144 15.6937656,61.4768657 15.7127182,61.1405473 C15.7319202,60.8044776 15.7316708,60.2798507 15.7124688,59.9746269 C15.6932668,59.669403 15.6775561,59.9445274 15.6778055,60.5858209 M16.0613466,60.2457711 C16.0613466,60.5930348 16.0790524,60.7350746 16.1007481,60.5614428 C16.1221945,60.3878109 16.1221945,60.1034826 16.1007481,59.9298507 C16.0790524,59.7562189 16.0613466,59.8982587 16.0613466,60.2457711 M97.2014963,60.0512438 C97.2014963,60.291791 97.2204489,60.3902985 97.2438903,60.2699005 C97.2670823,60.1497512 97.2670823,59.9529851 97.2438903,59.8325871 C97.2204489,59.7124378 97.2014963,59.8106965 97.2014963,60.0512438 M15.9605985,61.5574627 C15.9613466,61.8246269 15.9802993,61.9223881 16.0027431,61.7746269 C16.025187,61.6271144 16.0244389,61.4084577 16.0014963,61.288806 C15.9783042,61.169403 15.9598504,61.2902985 15.9605985,61.5574627 M97.1002494,62.2863184 C97.1002494,62.4733831 97.1201995,62.5497512 97.1448878,62.4562189 C97.1693267,62.3626866 97.1693267,62.2097015 97.1448878,62.1161692 C97.1201995,62.0226368 97.1002494,62.0992537 97.1002494,62.2863184 M15.940399,62.8748756 C15.936409,62.958209 16.0009975,63.1114428 16.0842893,63.2151741 C16.2334165,63.4007463 16.234414,63.4004975 16.1461347,63.2094527 C16.0970075,63.1024876 16.0321696,62.9495025 16.0024938,62.8691542 C15.955611,62.7432836 15.9471322,62.7440299 15.940399,62.8748756 M97.00798,64.6669154 C97.0087282,64.9340796 97.0276808,65.0318408 97.0501247,64.8840796 C97.0725686,64.7365672 97.0718204,64.5179104 97.0488778,64.3982587 C97.0256858,64.2788557 97.0072319,64.3997512 97.00798,64.6669154 M78.8389027,64.8830846 C79.0139651,64.9047264 79.276808,64.9042289 79.423192,64.8820896 C79.5695761,64.8599502 79.4264339,64.8422886 79.1049875,64.8427861 C78.7835411,64.8432836 78.6638404,64.8614428 78.8389027,64.8830846 M81.0793017,64.8830846 C81.2543641,64.9047264 81.5174564,64.9042289 81.6638404,64.8820896 C81.8102244,64.8599502 81.6668329,64.8422886 81.3453865,64.8427861 C81.0239401,64.8432836 80.9042394,64.8614428 81.0793017,64.8830846 M76.2087282,64.9803483 C76.3837905,65.00199 76.6468828,65.0014925 76.7932668,64.9793532 C76.9396509,64.9569652 76.7962594,64.9393035 76.474813,64.9400498 C76.1533666,64.9405473 76.0336658,64.9587065 76.2087282,64.9803483 M74.015212,65.0766169 C74.1625935,65.0987562 74.4034913,65.0987562 74.5508728,65.0766169 C74.6982544,65.0542289 74.5778055,65.0360697 74.2830424,65.0360697 C73.9882793,65.0360697 73.8678304,65.0542289 74.015212,65.0766169 M68.0730673,65.1711443 C68.1668329,65.1955224 68.3201995,65.1955224 68.4139651,65.1711443 C68.5077307,65.1467662 68.4309227,65.1266169 68.2433915,65.1266169 C68.0558603,65.1266169 67.9793017,65.1467662 68.0730673,65.1711443 M69.3927681,65.1766169 C69.8371571,65.1945274 70.5386534,65.1945274 70.9513716,65.1763682 C71.3638404,65.158209 71.0002494,65.1432836 70.1428928,65.1435323 C69.2857855,65.1435323 68.9481297,65.1584577 69.3927681,65.1766169 M65.9798005,65.2701493 C66.1009975,65.2932836 66.2763092,65.2925373 66.3693267,65.2681592 C66.4625935,65.2437811 66.3633416,65.2248756 66.1491272,65.2258706 C65.9346633,65.2268657 65.8586035,65.2467662 65.9798005,65.2701493 M55.8456359,65.3686567 C56.0184539,65.3900498 56.325187,65.3905473 56.5274314,65.369403 C56.7294264,65.3485075 56.5880299,65.3308458 56.2129676,65.3303483 C55.8379052,65.3298507 55.6725686,65.3472637 55.8456359,65.3686567 M59.3546135,65.4681592 C59.9037406,65.4855721 60.8022444,65.4855721 61.3516209,65.4681592 C61.9007481,65.4507463 61.4513716,65.4365672 60.3531172,65.4365672 C59.2546135,65.4365672 58.8054863,65.4507463 59.3546135,65.4681592 M96.9129676,66.4159204 C96.9134663,66.7365672 96.9316708,66.8562189 96.9533666,66.6813433 C96.9750623,66.5067164 96.9745636,66.2445274 96.9523691,66.0985075 C96.9301746,65.9524876 96.9124688,66.0952736 96.9129676,66.4159204 M97.1977556,67.1447761 C97.1977556,67.3318408 97.2177057,67.408209 97.2421446,67.3146766 C97.2665835,67.2211443 97.2665835,67.0681592 97.2421446,66.9746269 C97.2177057,66.8810945 97.1977556,66.9577114 97.1977556,67.1447761 M96.8182045,67.9221393 C96.8182045,68.3228856 96.8354115,68.4868159 96.8563591,68.2865672 C96.8773067,68.0860697 96.8773067,67.758209 96.8563591,67.5577114 C96.8354115,67.3572139 96.8182045,67.521393 96.8182045,67.9221393 M96.7144638,69.5741294 C96.7144638,69.8144279 96.7334165,69.9129353 96.7566085,69.7925373 C96.7800499,69.6723881 96.7800499,69.4756219 96.7566085,69.3554726 C96.7334165,69.2350746 96.7144638,69.3335821 96.7144638,69.5741294 M29.9603491,69.6547264 C30.0406484,69.7042289 30.2159601,69.7741294 30.3498753,69.8097015 C30.519202,69.8549751 30.5488778,69.8472637 30.4473815,69.7848259 C30.3668329,69.7353234 30.1915212,69.6654229 30.057606,69.629602 C29.8885287,69.5845771 29.8586035,69.5922886 29.9603491,69.6547264 M96.6107232,71.0363184 C96.5997506,71.5467662 96.5468828,72.0169154 96.4935162,72.0813433 C96.4401496,72.1457711 96.4638404,72.1402985 96.5461347,72.0691542 C96.665586,71.9659204 96.6892768,71.7559701 96.6633416,71.0241294 L96.6309227,70.1084577 L96.6107232,71.0363184 M72.3104738,72.1731343 C73.6633416,72.1885572 75.8770574,72.1885572 77.2296758,72.1731343 C78.5825436,72.1579602 77.4758105,72.1455224 74.7700748,72.1455224 C72.0645885,72.1455224 70.957606,72.1579602 72.3104738,72.1731343 M90.3805486,72.1728856 C90.8493766,72.1905473 91.6164589,72.1905473 92.0852868,72.1728856 C92.5541147,72.1549751 92.1705736,72.1402985 91.2329177,72.1402985 C90.2952618,72.1402985 89.9117207,72.1549751 90.3805486,72.1728856 M63.4882793,72.270398 C64.3822943,72.2863184 65.872818,72.2863184 66.8004988,72.270398 C67.7279302,72.2544776 66.9965087,72.2412935 65.1750623,72.2412935 C63.3533666,72.2412935 62.5942643,72.2542289 63.4882793,72.270398 M83.0259352,72.270398 C84.1107232,72.2860697 85.8860349,72.2860697 86.9710723,72.270398 C88.0558603,72.2547264 87.1683292,72.2420398 84.9985037,72.2420398 C82.8286783,72.2420398 81.9408978,72.2547264 83.0259352,72.270398 M93.2553616,72.2664179 C93.3765586,72.2895522 93.5518703,72.288806 93.6448878,72.2644279 C93.7381546,72.2400498 93.6389027,72.2211443 93.4246883,72.2221393 C93.2102244,72.2231343 93.1341646,72.2430348 93.2553616,72.2664179 M60.5214464,72.3649254 C60.6942643,72.3863184 61.0009975,72.3868159 61.2032419,72.3656716 C61.4052369,72.3447761 61.2638404,72.3271144 60.8887781,72.3266169 C60.5137157,72.3261194 60.3483791,72.3435323 60.5214464,72.3649254 M96.1473815,72.4835821 C96.0965087,72.5338308 95.8137157,72.5915423 95.5189526,72.6114428 L94.9832918,72.6475124 L95.5314214,72.6654229 C95.917207,72.6781095 96.1154613,72.6402985 96.2009975,72.5378109 C96.3341646,72.3776119 96.2947631,72.3375622 96.1473815,72.4835821 M62.8204489,72.7400498 C62.7845387,72.8333333 62.8513716,72.9768657 62.9902743,73.1044776 C63.2014963,73.2985075 63.2064838,73.2992537 63.0526185,73.1131841 C62.8551122,72.8738806 62.8399002,72.7181592 63.0074813,72.6507463 C63.1029925,72.6121891 63.1022444,72.6 63.0044888,72.5940299 C62.9359102,72.589801 62.8531172,72.6554726 62.8204489,72.7400498 M35.7047382,73.6308458 L35.0743142,74.2868159 L35.7319202,73.6579602 C36.3426434,73.0738806 36.4339152,72.9748756 36.3623441,72.9748756 C36.3473815,72.9748756 36.0513716,73.2701493 35.7047382,73.6308458 M64.1521197,73.1029851 C64.1521197,73.1266169 64.4042394,73.3345771 64.7122195,73.5651741 C65.0201995,73.7957711 65.2194514,73.9191542 65.1551122,73.8395522 C65.0226933,73.6758706 64.1521197,73.0365672 64.1521197,73.1029851 M79.7154613,73.4340796 C79.8905237,73.4557214 80.153616,73.4552239 80.3,73.4330846 C80.446384,73.4109453 80.3032419,73.3932836 79.9817955,73.3937811 C79.6603491,73.3942786 79.540399,73.4124378 79.7154613,73.4340796 M65.4281796,74.1039801 C65.6842893,74.4119403 66.5902743,74.6400498 67.1206983,74.5303483 C67.3982544,74.4726368 67.6875312,74.4455224 67.7638404,74.4696517 C68.2097257,74.6106965 68.4309227,74.6233831 68.3855362,74.5054726 C68.3511222,74.4161692 68.1406484,74.3912935 67.6331671,74.4164179 C67.2453865,74.4355721 66.7905237,74.4549751 66.6219451,74.4594527 C66.453616,74.4636816 66.0922693,74.3569652 65.819202,74.2221393 C65.5458853,74.0873134 65.3700748,74.0343284 65.4281796,74.1039801 M66.2740648,74.8930348 C66.5571072,74.9126866 66.9955112,74.9124378 67.2481297,74.8925373 C67.5009975,74.8726368 67.2693267,74.8564677 66.7336658,74.8567164 C66.1977556,74.8569652 65.9910224,74.8733831 66.2740648,74.8930348 M59.5157107,76.570398 C59.5246883,77.080597 59.8389027,77.3972637 59.9236908,76.9808458 C59.9374065,76.9126866 59.9264339,76.9017413 59.8992519,76.9564677 C59.7605985,77.2353234 59.5817955,77.0278607 59.5451372,76.5460199 L59.5064838,76.0358209 L59.5157107,76.570398 M68.3408978,76.2218905 C68.3408978,76.4681592 69.6314214,77.5502488 69.765586,77.4164179 C69.7890274,77.3930348 69.6743142,77.318408 69.5104738,77.2507463 C69.3466334,77.1830846 69.0164589,76.9099502 68.7765586,76.6440299 C68.5369077,76.3781095 68.3408978,76.1880597 68.3408978,76.2218905 M73.4326683,76.9325871 C73.6668329,76.9569652 73.7760599,77.0094527 73.7341646,77.0771144 C73.6945137,77.1412935 73.7134663,77.1554726 73.7825436,77.1129353 C73.9857855,76.9875622 73.7935162,76.8614428 73.4249377,76.8781095 L73.0653367,76.8945274 L73.4326683,76.9325871 M70.9491272,77.1273632 C71.1783042,77.14801 71.5289277,77.1477612 71.7284289,77.1268657 C71.9279302,77.1059701 71.7406484,77.0890547 71.3119701,77.0895522 C70.8832918,77.089801 70.7201995,77.1069652 70.9491272,77.1273632 M71.3374065,77.6106965 C71.4586035,77.6338308 71.6339152,77.6330846 71.727182,77.6087065 C71.8201995,77.5843284 71.721197,77.5654229 71.5067332,77.5664179 C71.2925187,77.5676617 71.2162095,77.5875622 71.3374065,77.6106965 M88.9922693,82.9166667 C88.9922693,82.9335821 89.1349127,83.0756219 89.3089776,83.2325871 L89.6254364,83.5179104 L89.3394015,83.2022388 C89.072818,82.9077114 88.9922693,82.841791 88.9922693,82.9166667 M56.221197,85.8422886 C56.7112219,86.0047264 57.2216958,86.259204 57.4775561,86.4691542 C57.6603491,86.6189055 57.6633416,86.6179104 57.532419,86.4497512 C57.3513716,86.2171642 56.5955112,85.8405473 56.1643392,85.7681592 C55.8411471,85.7136816 55.8441397,85.7176617 56.221197,85.8422886 M58.8209476,89.4940299 C58.8209476,89.7343284 58.8399002,89.8328358 58.8630923,89.7126866 C58.8862843,89.5922886 58.8862843,89.3955224 58.8630923,89.2753731 C58.8399002,89.1549751 58.8209476,89.2534826 58.8209476,89.4940299 M93.7758105,92.9435323 C93.7735661,93.2427861 94.2349127,95.19801 94.2458853,94.9355721 C94.2566085,94.6751244 93.980798,93.1445274 93.8778055,92.8950249 L93.7780549,92.65199 L93.7758105,92.9435323 M94.3805486,93.4049751 C94.8064838,95.2099502 94.8187032,96.2962687 94.4034913,95.421393 C94.2902743,95.1828358 94.2578554,95.1537313 94.2952618,95.3241294 C94.3246883,95.4577114 94.3770574,95.9226368 94.4114713,96.3569652 L94.4743142,97.1467662 L92.4396509,97.2059701 C89.534414,97.2905473 64.0054863,97.2151741 63.4214464,97.1201493 C62.8042394,97.0199005 62.9296758,97.2641791 63.5907731,97.4497512 C63.819202,97.5139303 64.3346633,97.6843284 64.7366584,97.8283582 L65.4670823,98.0902985 L64.9800499,98.1562189 C64.7122195,98.1925373 50.2501247,98.2261194 32.8421446,98.2308458 C15.4339152,98.2353234 1.21745636,98.2656716 1.24962594,98.2977612 C1.35760599,98.4054726 94.0723192,98.3355721 94.5029925,98.2273632 C94.7219451,98.1723881 95.0197007,98.0323383 95.1645885,97.9161692 L95.4281796,97.7047264 L95.2201995,96.538806 C95.1057357,95.8975124 94.9558603,95.0447761 94.8875312,94.6440299 C94.7633416,93.9179104 94.515212,93.1863184 94.3932668,93.1863184 C94.3578554,93.1863184 94.3521197,93.2848259 94.3805486,93.4049751 M61.2785536,94.6440299 C61.361596,94.8042289 61.4513716,94.9355721 61.4783042,94.9355721 C61.5049875,94.9355721 61.4588529,94.8042289 61.3758105,94.6440299 C61.2927681,94.4835821 61.2027431,94.3524876 61.1760599,94.3524876 C61.1491272,94.3524876 61.1952618,94.4835821 61.2785536,94.6440299 M0.801995012,94.9248756 C0.765835411,95.1044776 0.741147132,95.3442786 0.74713217,95.4577114 C0.75286783,95.571393 0.796508728,95.4674129 0.844139651,95.2271144 C0.891521197,94.9865672 0.916209476,94.7467662 0.898753117,94.6940299 C0.881546135,94.6415423 0.837905237,94.7452736 0.801995012,94.9248756 M0.666832918,96.3445274 C0.667581047,96.6116915 0.686533666,96.7094527 0.708977556,96.5616915 C0.731421446,96.4139303 0.730673317,96.1955224 0.707481297,96.0758706 C0.684538653,95.9564677 0.666084788,96.0771144 0.666832918,96.3445274" id="path1" fill="#B4B4B4"></path>
                <path d="M40.1399002,1.12512438 C39.9790524,1.14751244 39.4371571,1.21343284 38.9354115,1.27164179 C36.3356608,1.57263682 35.0610973,2.13905473 28.8887781,5.73606965 C26.4221945,7.17363184 25.0573566,7.94303483 23.7259352,8.64701493 C23.0561097,9.00099502 21.7630923,9.72014925 20.8521197,10.2450249 C19.9413965,10.7699005 18.8453865,11.3706468 18.4169576,11.5798507 C17.3097257,12.120398 17.3553616,12.0395522 17.2812968,13.5830846 C17.117207,17.0004975 16.7972569,29.9512438 16.7488778,35.1271144 C16.7374065,36.3562189 16.6822943,39.6358209 16.6264339,42.4149254 C16.5705736,45.1940299 16.4805486,49.7415423 16.4259352,52.5206468 C16.3715711,55.2997512 16.2822943,58.2512438 16.2274314,59.079602 C15.9558603,63.1900498 15.9458853,63.0631841 16.5900249,63.6738806 C17.2179551,64.2691542 23.0571072,66.9562189 25.8688279,67.9437811 C26.3244389,68.1037313 27.6613466,68.6191542 28.8399002,69.0893035 C30.0187032,69.559204 31.355611,70.0748756 31.8112219,70.2350746 C32.2665835,70.3952736 33.121197,70.7221393 33.7107232,70.9614428 C34.3,71.2007463 35.1386534,71.5129353 35.5745636,71.6554726 C36.6034913,71.991791 36.7593516,72.1559701 36.6032419,72.7378109 C36.5394015,72.9766169 36.4870324,73.2940299 36.4870324,73.4432836 C36.4870324,74.2256219 33.9064838,76.6997512 31.9571072,77.7863184 C29.8074813,78.9845771 27.4665835,78.9728856 25.7882793,77.7552239 C24.2610973,76.6472637 23.9755611,76.6957711 20.2493766,78.6972637 C18.3578554,79.7134328 18.0122195,79.8577114 16.4852868,80.270398 C12.1703242,81.4360697 8.3286783,84.0920398 5.12992519,88.1211443 C3.39476309,90.3067164 1.41820449,93.6723881 1.41820449,94.4415423 C1.41845387,95.1059701 2.25137157,94.0141791 3.30249377,91.9718905 C5.54538653,87.6139303 6.79975062,86.54801 10.1855362,86.1236318 L10.8187032,86.0442786 L10.9970075,85.4614428 C11.3645885,84.2597015 11.2386534,84.3084577 12.9129676,84.7228856 C15.0366584,85.2485075 15.1506234,85.39801 13.7753117,85.8547264 C12.9102244,86.1422886 12.7857855,86.2853234 13.1052369,86.6243781 C14.2229426,87.811194 17.9109726,87.5766169 24.4563591,85.90199 C26.0725686,85.4885572 26.9710723,85.349005 28.4990025,85.2736318 C30.9541147,85.1522388 33.5755611,83.9191542 38.115212,80.7502488 C38.9369077,80.1766169 39.0289277,80.189801 40.6895262,81.1211443 C42.3910224,82.0751244 42.4174564,82.0783582 42.8341646,81.3833333 C43.2354115,80.7139303 43.4720698,80.6104478 44.398005,80.6987562 C45.467581,80.8007463 50.7586035,81.5940299 51.5371571,81.7691542 C51.9122195,81.8534826 52.8810474,82.038806 53.6900249,82.1808458 L55.1608479,82.4395522 L55.6381546,82.1365672 C55.9007481,81.9701493 56.3346633,81.7368159 56.6027431,81.6181592 C60.0144638,80.1084577 62.3012469,77.9146766 62.3012469,76.1517413 C62.3012469,76.0044776 61.7690773,76.1514925 60.9705736,76.5196517 C60.5623441,76.7077114 60.1685786,76.8616915 60.0957606,76.8616915 C60.0229426,76.8616915 59.9633416,76.9273632 59.9633416,77.0074627 C59.9633416,77.0982587 59.8713217,77.1532338 59.7199501,77.1532338 C59.4014963,77.1532338 59.3900249,76.4701493 59.6730673,74.3223881 C59.9528678,72.1960199 59.8610973,72.3291045 61.1162095,72.231592 C61.6875312,72.1873134 69.2785536,72.1504975 77.984788,72.15 L93.8142145,72.149005 L94.5067332,72.3676617 C96.0591022,72.8579602 96.5897756,72.5291045 96.5915212,71.0756219 C96.59202,70.5970149 96.6331671,69.7027363 96.682793,69.0880597 C96.732419,68.4736318 96.798005,67.4679104 96.8284289,66.8532338 C96.8591022,66.2385572 96.9064838,65.4077114 96.9341646,65.0069652 C97.0628429,63.1375622 97.386783,55.3741294 97.4144638,53.4922886 C97.4366584,51.9823383 97.6513716,47.3345771 97.872818,43.5808458 C97.9326683,42.5654229 98.0119701,40.9912935 98.0493766,40.0828358 C98.2256858,35.7766169 98.4453865,31.5370647 98.5374065,30.6572139 C98.6548628,29.5363184 98.7972569,26.6960199 98.8832918,23.758209 C98.9162095,22.6358209 98.9875312,21.2146766 99.0416459,20.6002488 C99.0957606,19.9855721 99.1793017,18.4987562 99.2274314,17.2962687 C99.2755611,16.0937811 99.3543641,14.1261194 99.4022444,12.9236318 C99.4501247,11.7211443 99.5386534,10.6141791 99.5985037,10.4636816 C99.6605985,10.3084577 99.7077307,9.61343284 99.7077307,8.85547264 L99.7077307,7.52039801 L98.346384,7.50049751 C97.5603491,7.48880597 96.2531172,7.38059701 95.2533666,7.24402985 C94.3012469,7.1141791 93.1274314,6.97885572 92.6453865,6.94328358 C92.1630923,6.90771144 90.8481297,6.73308458 89.7229426,6.55522388 C87.072818,6.13606965 85.3975062,5.90099502 82.4658354,5.53681592 C81.1531172,5.3738806 78.9613466,5.09129353 77.5950125,4.90895522 C75.1985037,4.58930348 72.8361596,4.3539801 68.8279302,4.0358209 C64.3269327,3.67860697 58.8264339,3.03457711 53.8750623,2.28532338 C47.3017456,1.29029851 46.1199501,1.16467662 42.9162095,1.11940299 C41.5498753,1.1 40.3004988,1.10248756 40.1399002,1.12512438 M98.2221945,6.38457711 C98.3426434,6.40771144 98.5401496,6.40771144 98.6605985,6.38457711 C98.7810474,6.36144279 98.6825436,6.34253731 98.4413965,6.34253731 C98.2002494,6.34253731 98.1017456,6.36144279 98.2221945,6.38457711 M53.7775561,8.45820896 C54.0990025,8.51343284 54.8224439,8.59776119 55.3850374,8.64527363 C55.9476309,8.69303483 56.7586035,8.77761194 57.1870324,8.83333333 C57.6157107,8.88905473 58.7992519,8.98034826 59.817207,9.03606965 C60.8351621,9.0920398 62.2379052,9.20174129 62.934414,9.28034826 C65.5391521,9.57338308 68.7618454,9.91094527 71.2633416,10.1524876 C72.6830424,10.289801 74.3488778,10.4930348 74.9648379,10.6044776 C75.9256858,10.7783582 76.6466334,10.8164179 80.0304239,10.8726368 C82.2002494,10.9084577 84.0304239,10.9718905 84.0972569,11.0134328 C84.1643392,11.0547264 84.8216958,11.1268657 85.5586035,11.1733831 C90.1503741,11.4629353 92.8476309,13.0873134 93.7017456,16.0773632 C93.9790524,17.0487562 94.0498753,21.5947761 93.8219451,23.8067164 C93.7366584,24.6350746 93.6009975,26.2470149 93.5204489,27.3885572 C93.4399002,28.5300995 93.3553616,29.4942786 93.332419,29.5313433 C93.1705736,29.7925373 92.9975062,33.341791 92.69202,42.6577114 C92.5379052,47.3629353 92.4164589,50.1348259 92.3605985,50.2251244 C92.3331671,50.269403 92.2645885,51.0880597 92.20798,52.0447761 C91.8907731,57.4164179 90.9179551,61.8171642 89.3950125,64.769403 L88.8461347,65.8328358 L88.3591022,65.8206468 C88.0912718,65.8139303 87.5800499,65.718408 87.2234414,65.6079602 C85.2199501,64.9885572 81.2044888,64.7659204 76.4261845,65.009204 C75.3812968,65.0624378 72.5538653,65.15 70.1428928,65.2037313 C67.7319202,65.2577114 65.1895262,65.3430348 64.4930175,65.3937811 C61.6872818,65.5975124 54.3922693,65.4457711 52.7062344,65.1485075 C52.2239401,65.0636816 51.1718204,64.8905473 50.3683292,64.7639303 C47.1753117,64.261194 44.723192,63.1276119 43.5618454,61.6179104 C42.2568579,59.9216418 42.2855362,60.0992537 42.2840399,53.6865672 C42.282793,47.7564677 42.3730673,41.1589552 42.517207,36.6333333 C42.5705736,34.9497512 42.6411471,32.5666667 42.6735661,31.3375622 C42.872818,23.8029851 43.2708229,17.0987562 43.6513716,14.8597015 C43.9431421,13.1430348 45.0955112,10.6298507 45.9291771,9.89154229 C47.2703242,8.70373134 51.1182045,8.00124378 53.7775561,8.45820896 M99.927182,9.27985075 C99.9281796,9.49353234 99.9481297,9.56965174 99.9715711,9.44875622 C99.9947631,9.3278607 99.994015,9.15298507 99.9695761,9.05995025 C99.9451372,8.96716418 99.9261845,9.0659204 99.927182,9.27985075 M99.840399,15.45 C99.840399,15.9577114 99.8566085,16.1654229 99.876808,15.9116915 C99.8967581,15.6577114 99.8967581,15.2422886 99.876808,14.9885572 C99.8566085,14.7345771 99.840399,14.9422886 99.840399,15.45 M88.8907731,81.841791 C89.2945137,82.2708955 89.3820449,82.34801 89.3820449,82.2748756 C89.3820449,82.2594527 89.1738155,82.0517413 88.919202,81.8134328 L88.4566085,81.3800995 L88.8907731,81.841791 M57.2281796,97.0139303 C57.1972569,97.0460199 44.4581047,97.0728856 28.9189526,97.0736318 L0.665835411,97.0751244 L0.606234414,97.578607 C0.573316708,97.8554726 0.562094763,98.0977612 0.581296758,98.1169154 C0.640149626,98.1756219 65.1189526,98.1818408 65.1778055,98.1231343 C65.20798,98.0930348 64.7922693,97.9273632 64.2541147,97.7549751 C63.7159601,97.5825871 63.1578554,97.3492537 63.0139651,97.2363184 C62.7558603,97.0338308 57.4074813,96.8281095 57.2281796,97.0139303" id="path2" fill="#4A4545"></path>
                <path d="M38.9289277,0.105472637 C37.8625935,0.243283582 36.5820449,0.580099502 35.4640898,1.01716418 C34.3476309,1.45348259 33.9269327,1.67587065 32.1630923,2.76044776 C31.5795511,3.11915423 30.6810474,3.62437811 30.1660848,3.88333333 C29.2912718,4.32338308 28.7620948,4.62338308 25.9418953,6.27935323 C24.4201995,7.17288557 21.7553616,8.65621891 20.8975062,9.08706468 C20.5037406,9.28482587 20.0975062,9.55348259 19.9945137,9.68383085 C19.8917706,9.8141791 19.3523691,10.1415423 18.7957606,10.4114428 C18.2394015,10.6810945 17.6523691,11.0246269 17.4915212,11.1743781 L17.1992519,11.4470149 L17.1992519,12.608209 C17.1992519,13.2470149 17.1765586,14.0495025 17.1486284,14.3912935 C17.1137157,14.8221393 17.1266833,14.9532338 17.1905237,14.818408 C17.2413965,14.7116915 17.2865337,14.1430348 17.2912718,13.5552239 C17.301995,12.15199 17.3054863,12.1470149 18.7089776,11.4233831 C19.3521197,11.0920398 20.4698254,10.4761194 21.1930175,10.0544776 C21.9164589,9.63308458 23.0561097,8.99900498 23.7259352,8.64577114 C25.0518703,7.9460199 26.127182,7.34054726 28.8887781,5.7380597 C36.5077307,1.31716418 37.117207,1.11094527 42.5264339,1.1238806 C45.9945137,1.13208955 46.7872818,1.21766169 55.4822943,2.51965174 C59.5284289,3.12562189 64.5870324,3.69402985 69.4124688,4.08482587 C73.6309227,4.42661692 75.0605985,4.57064677 77.5950125,4.90895522 C78.9613466,5.09129353 81.1531172,5.3738806 82.4658354,5.53681592 C85.3975062,5.90099502 87.072818,6.13606965 89.7229426,6.55522388 C90.8481297,6.73308458 92.1630923,6.90771144 92.6453865,6.94328358 C93.1274314,6.97885572 94.3012469,7.1141791 95.2533666,7.24402985 C96.2531172,7.38059701 97.5603491,7.48880597 98.346384,7.50049751 L99.7077307,7.52039801 L99.7077307,8.85547264 C99.7077307,9.61343284 99.6605985,10.3084577 99.5985037,10.4636816 C99.5386534,10.6141791 99.4501247,11.7211443 99.4022444,12.9236318 C99.3543641,14.1261194 99.2755611,16.0937811 99.2274314,17.2962687 C99.1793017,18.4987562 99.0957606,19.9855721 99.0416459,20.6002488 C98.9875312,21.2146766 98.9162095,22.6358209 98.8832918,23.758209 C98.7972569,26.6960199 98.6548628,29.5363184 98.5374065,30.6572139 C98.4453865,31.5380597 98.2244389,35.8044776 98.0493766,40.0828358 C98.0122195,40.9912935 97.9339152,42.5435323 97.8750623,43.5323383 C97.8162095,44.5211443 97.7216958,46.3793532 97.6645885,47.6621891 C97.6074813,48.9447761 97.5139651,50.7731343 97.4563591,51.7253731 C97.3990025,52.6776119 97.3835411,53.5738806 97.4221945,53.7174129 L97.4925187,53.9781095 L97.5820449,53.6865672 C97.6314214,53.5263682 97.7117207,52.4549751 97.7605985,51.3059701 C97.8094763,50.1569652 97.872818,49.041791 97.9009975,48.8281095 C97.9294264,48.6144279 97.9987531,47.0619403 98.0548628,45.378607 C98.1733167,41.8278607 98.521197,34.290796 98.5862843,33.8639303 C98.6374065,33.529602 98.8935162,28.4783582 98.9733167,26.2360697 C99.0406484,24.3445274 99.0927681,23.1482587 99.2703242,19.4340796 C99.4890274,14.8554726 99.5508728,14.0942786 99.7114713,13.991791 C99.8042394,13.9325871 100.050125,6.78084577 99.9668329,6.5641791 C99.9221945,6.44825871 99.7551122,6.41293532 99.2481297,6.41218905 C97.9167082,6.41044776 95.6982544,6.20149254 93.0837905,5.8318408 C89.6062344,5.34004975 88.8142145,5.24004975 86.9309227,5.05373134 C86.3598504,4.99701493 85.5049875,4.86791045 85.0314214,4.76641791 C84.5578554,4.66492537 83.863591,4.55298507 83.4885287,4.51766169 C83.1134663,4.48208955 81.7546135,4.30696517 80.4688279,4.12835821 C77.8274314,3.76144279 75.932419,3.54950249 73.9421446,3.39900498 C73.19202,3.34228856 72.1399002,3.23383085 71.6042394,3.15820896 C71.0683292,3.08233831 69.3588529,2.90746269 67.8049875,2.76940299 C64.5089776,2.47661692 62.4399002,2.22089552 60.7426434,1.89651741 C60.0730673,1.76840796 59.1304239,1.63606965 58.6483791,1.60223881 C57.2915212,1.50696517 54.482793,1.17985075 53.2418953,0.972636816 C51.6900249,0.71318408 47.9573566,0.217164179 46.6665835,0.0985074627 C45.4097257,-0.0169154229 39.8381546,-0.0119402985 38.9289277,0.105472637 M50.5872818,8.42512438 C50.70798,8.44850746 50.9052369,8.44850746 51.0256858,8.42512438 C51.146384,8.40199005 51.0476309,8.38308458 50.8064838,8.38308458 C50.565586,8.38308458 50.4668329,8.40199005 50.5872818,8.42512438 M52.4361596,8.42686567 C52.6089776,8.44825871 52.9159601,8.44850746 53.1179551,8.42761194 C53.3199501,8.40646766 53.1785536,8.38905473 52.8034913,8.38855721 C52.4284289,8.3880597 52.2630923,8.40522388 52.4361596,8.42686567 M58.4291771,9.00671642 C58.5229426,9.03109453 58.6763092,9.03109453 58.7700748,9.00671642 C58.8638404,8.98233831 58.7870324,8.96218905 58.5995012,8.96218905 C58.4119701,8.96218905 58.3354115,8.98233831 58.4291771,9.00671642 M60.3773067,9.10373134 C60.4710723,9.12835821 60.6244389,9.12835821 60.7182045,9.10373134 C60.8119701,9.07935323 60.7354115,9.05945274 60.5478803,9.05945274 C60.3603491,9.05945274 60.2835411,9.07935323 60.3773067,9.10373134 M61.546384,9.20099502 C61.6401496,9.22537313 61.7935162,9.22537313 61.8872818,9.20099502 C61.9810474,9.17661692 61.9042394,9.15646766 61.7167082,9.15646766 C61.5291771,9.15646766 61.4526185,9.17661692 61.546384,9.20099502 M46.5935162,9.38383085 C46.2157107,9.58830846 46.2586035,9.65895522 46.6421446,9.4641791 C47.0094763,9.2778607 47.0743142,9.22960199 46.9506234,9.23507463 C46.9014963,9.23731343 46.7408978,9.30422886 46.5935162,9.38383085 M62.4229426,9.29825871 C62.5167082,9.32263682 62.6703242,9.32263682 62.7640898,9.29825871 C62.8578554,9.27363184 62.7810474,9.25373134 62.5935162,9.25373134 C62.405985,9.25373134 62.3291771,9.27363184 62.4229426,9.29825871 M64.2738155,9.49253731 C64.367581,9.51691542 64.5209476,9.51691542 64.6147132,9.49253731 C64.7084788,9.4681592 64.6319202,9.44800995 64.444389,9.44800995 C64.2568579,9.44800995 64.1800499,9.4681592 64.2738155,9.49253731 M45.7359102,10.0813433 L45.4002494,10.4457711 L45.765586,10.1109453 C45.9663342,9.92686567 46.1306733,9.76268657 46.1306733,9.74651741 C46.1306733,9.67238806 46.0483791,9.74228856 45.7359102,10.0813433 M76.4029925,10.8547264 C76.5241895,10.8778607 76.6995012,10.8771144 76.7925187,10.8527363 C76.8857855,10.8283582 76.7865337,10.8094527 76.5723192,10.8104478 C76.3578554,10.8114428 76.2817955,10.8313433 76.4029925,10.8547264 M82.1977556,10.9539801 C82.3987531,10.9748756 82.7274314,10.9748756 82.9284289,10.9539801 C83.1294264,10.9328358 82.9648379,10.9156716 82.5630923,10.9156716 C82.1613466,10.9156716 81.9970075,10.9328358 82.1977556,10.9539801 M91.9147132,13.2455224 C91.9147132,13.2621891 92.0571072,13.4044776 92.2314214,13.5614428 L92.5478803,13.8467662 L92.2618454,13.5310945 C91.9950125,13.2365672 91.9147132,13.170398 91.9147132,13.2455224 M17.1296758,15.4987562 C17.1304239,15.7659204 17.1493766,15.8636816 17.1715711,15.7159204 C17.194015,15.5681592 17.1935162,15.3497512 17.1703242,15.2300995 C17.1471322,15.1106965 17.1289277,15.2313433 17.1296758,15.4987562 M93.9062344,20.0656716 C93.9062344,21.6689055 93.9194514,22.3385572 93.9359102,21.5534826 C93.9521197,20.7686567 93.9521197,19.4567164 93.9359102,18.6383085 C93.9197007,17.8201493 93.9062344,18.4624378 93.9062344,20.0656716 M17.0336658,18.9482587 C17.0336658,19.2422886 17.0518703,19.3624378 17.0740648,19.2154229 C17.0965087,19.068408 17.0965087,18.8278607 17.0740648,18.6810945 C17.0518703,18.5340796 17.0336658,18.6542289 17.0336658,18.9482587 M43.2329177,18.8997512 C43.2339152,19.1134328 43.2538653,19.1895522 43.2773067,19.0686567 C43.3004988,18.9477612 43.2997506,18.7728856 43.2753117,18.6798507 C43.2508728,18.5870647 43.2319202,18.6858209 43.2329177,18.8997512 M43.1374065,20.4057214 C43.1374065,20.6462687 43.1566085,20.7447761 43.1798005,20.6243781 C43.2029925,20.5042289 43.2029925,20.3074627 43.1798005,20.1870647 C43.1566085,20.0669154 43.1374065,20.1651741 43.1374065,20.4057214 M43.0436409,22.009204 C43.044389,22.3298507 43.0625935,22.4492537 43.0840399,22.2746269 C43.1057357,22.1 43.1054863,21.8375622 43.0830424,21.6915423 C43.0608479,21.5455224 43.0431421,21.6885572 43.0436409,22.009204 M42.9516209,23.9524876 C42.9518703,24.4870647 42.9683292,24.6932836 42.9880299,24.4106965 C43.0077307,24.1283582 43.0077307,23.6910448 42.9875312,23.4390547 C42.967581,23.1870647 42.9513716,23.4181592 42.9516209,23.9524876 M93.7882793,23.5151741 C93.7882793,23.7022388 93.8082294,23.7788557 93.8326683,23.6853234 C93.8573566,23.591791 93.8573566,23.438806 93.8326683,23.3452736 C93.8082294,23.2517413 93.7882793,23.3281095 93.7882793,23.5151741 M16.9361596,24.9728856 C16.9361596,25.2666667 16.9543641,25.3870647 16.976808,25.2400498 C16.9990025,25.0930348 16.9990025,24.8524876 16.976808,24.7054726 C16.9543641,24.5587065 16.9361596,24.6788557 16.9361596,24.9728856 M93.5932668,25.7502488 C93.5932668,25.9373134 93.6134663,26.0136816 93.6379052,25.9201493 C93.6623441,25.8266169 93.6623441,25.6736318 93.6379052,25.5800995 C93.6134663,25.4865672 93.5932668,25.5631841 93.5932668,25.7502488 M42.8538653,26.4303483 C42.8538653,26.9380597 42.8703242,27.1457711 42.8902743,26.891791 C42.9104738,26.6380597 42.9104738,26.2226368 42.8902743,25.9689055 C42.8703242,25.7149254 42.8538653,25.9226368 42.8538653,26.4303483 M93.5012469,26.9646766 C93.501995,27.2320896 93.5209476,27.3298507 93.5431421,27.1820896 C93.565586,27.0343284 93.5650873,26.8156716 93.5418953,26.6962687 C93.5187032,26.5766169 93.5004988,26.6975124 93.5012469,26.9646766 M16.8451372,28.908209 C16.8453865,29.4425373 16.8618454,29.6487562 16.8815461,29.3664179 C16.9012469,29.0840796 16.9009975,28.6467662 16.8810474,28.3947761 C16.8610973,28.1427861 16.8448878,28.3738806 16.8451372,28.908209 M42.7586035,29.2967662 C42.7586035,29.9383085 42.7745636,30.1878109 42.7935162,29.8517413 C42.8127182,29.5156716 42.8124688,28.9910448 42.7932668,28.6858209 C42.7738155,28.380597 42.7583541,28.6554726 42.7586035,29.2967662 M93.1062344,30.8029851 C93.1062344,30.9900498 93.1264339,31.0666667 93.1508728,30.9731343 C93.1753117,30.879602 93.1753117,30.7266169 93.1508728,30.6330846 C93.1264339,30.5395522 93.1062344,30.6159204 93.1062344,30.8029851 M42.659601,32.309204 C42.6598504,32.8435323 42.6760599,33.0497512 42.6957606,32.7674129 C42.7154613,32.4850746 42.7154613,32.0477612 42.6952618,31.7957711 C42.6753117,31.5437811 42.6593516,31.7746269 42.659601,32.309204 M16.7433915,33.0380597 C16.7433915,33.3853234 16.7610973,33.5273632 16.7825436,33.3537313 C16.8042394,33.1800995 16.8042394,32.8957711 16.7825436,32.7221393 C16.7610973,32.5485075 16.7433915,32.6905473 16.7433915,33.0380597 M93.0109726,32.7950249 C93.0119701,33.0087065 93.0319202,33.0848259 93.0551122,32.9639303 C93.0785536,32.8430348 93.0775561,32.6681592 93.0531172,32.5751244 C93.0289277,32.4823383 93.0097257,32.5813433 93.0109726,32.7950249 M92.9134663,35.321393 C92.9144638,35.5353234 92.934414,35.611194 92.9578554,35.4902985 C92.9810474,35.369403 92.9802993,35.1945274 92.9558603,35.1017413 C92.9314214,35.0087065 92.9124688,35.1077114 92.9134663,35.321393 M42.5643392,36.2930348 C42.5645885,36.9878109 42.5800499,37.2594527 42.5987531,36.8965174 C42.6177057,36.5333333 42.6174564,35.9649254 42.5985037,35.6330846 C42.5795511,35.3014925 42.5640898,35.5982587 42.5643392,36.2930348 M16.7471322,36.438806 C16.7471322,36.9465174 16.763591,37.1542289 16.7837905,36.9004975 C16.8037406,36.6465174 16.8037406,36.2310945 16.7837905,35.9773632 C16.763591,35.7233831 16.7471322,35.9310945 16.7471322,36.438806 M92.8159601,37.8477612 C92.817207,38.0616915 92.8371571,38.1375622 92.8603491,38.0166667 C92.8835411,37.8960199 92.882793,37.7208955 92.8583541,37.6281095 C92.8339152,37.5353234 92.8149626,37.6340796 92.8159601,37.8477612 M16.6411471,38.1880597 C16.6411471,38.4283582 16.6603491,38.5268657 16.6835411,38.4067164 C16.7067332,38.2863184 16.7067332,38.0895522 16.6835411,37.969403 C16.6603491,37.849005 16.6411471,37.9475124 16.6411471,38.1880597 M42.4516209,38.5766169 C42.4516209,38.7636816 42.4718204,38.8402985 42.4962594,38.7467662 C42.5206983,38.6532338 42.5206983,38.5002488 42.4962594,38.4067164 C42.4718204,38.3131841 42.4516209,38.3895522 42.4516209,38.5766169 M92.7259352,40.5686567 C92.7264339,40.9427861 92.7441397,41.0838308 92.7650873,40.8823383 C92.7862843,40.680597 92.7857855,40.3746269 92.7643392,40.20199 C92.7428928,40.029602 92.7256858,40.1945274 92.7259352,40.5686567 M42.365586,41.8803483 C42.365586,42.3348259 42.3825436,42.5206468 42.4029925,42.2935323 C42.4234414,42.0661692 42.4234414,41.6945274 42.4029925,41.4674129 C42.3825436,41.2402985 42.365586,41.4261194 42.365586,41.8803483 M92.6286783,43.5808458 C92.6289277,43.9549751 92.6466334,44.0962687 92.6678304,43.8945274 C92.6887781,43.6930348 92.6885287,43.3868159 92.6668329,43.2144279 C92.6453865,43.041791 92.6281796,43.2067164 92.6286783,43.5808458 M16.5553616,45.2813433 C16.5553616,46.0029851 16.5708229,46.29801 16.5895262,45.9373134 C16.6082294,45.5766169 16.6082294,44.9863184 16.5895262,44.6256219 C16.5708229,44.2646766 16.5553616,44.5599502 16.5553616,45.2813433 M42.3643392,45.5728856 C42.3643392,45.9736318 42.3815461,46.1378109 42.4027431,45.9373134 C42.4236908,45.7368159 42.4236908,45.4089552 42.4027431,45.2084577 C42.3815461,45.008209 42.3643392,45.1721393 42.3643392,45.5728856 M92.5311721,46.1074627 C92.5316708,46.4813433 92.5491272,46.6226368 92.5703242,46.4208955 C92.5915212,46.219403 92.5910224,45.9131841 92.5695761,45.740796 C92.5481297,45.568408 92.5306733,45.7333333 92.5311721,46.1074627 M42.3608479,46.8360697 C42.3608479,47.1300995 42.3790524,47.2502488 42.4014963,47.1032338 C42.4236908,46.9564677 42.4236908,46.7159204 42.4014963,46.5689055 C42.3790524,46.4218905 42.3608479,46.5422886 42.3608479,46.8360697 M16.4526185,48.0992537 C16.4526185,48.5002488 16.4698254,48.6641791 16.4907731,48.4636816 C16.5119701,48.2634328 16.5119701,47.9353234 16.4907731,47.7350746 C16.4698254,47.5345771 16.4526185,47.6985075 16.4526185,48.0992537 M92.4351621,48.6338308 C92.4356608,49.0614428 92.4526185,49.2241294 92.4733167,48.9955224 C92.4937656,48.7671642 92.4935162,48.4171642 92.4725686,48.2181592 C92.4516209,48.0191542 92.4349127,48.2062189 92.4351621,48.6338308 M42.2688279,49.3139303 C42.2685786,49.7950249 42.2850374,50.0039801 42.3054863,49.7783582 C42.3259352,49.5529851 42.3261845,49.1594527 42.305985,48.9039801 C42.2857855,48.6485075 42.2690773,48.8330846 42.2688279,49.3139303 M16.3640898,53.8323383 C16.3640898,55.0348259 16.3780549,55.5268657 16.3952618,54.9256219 C16.4122195,54.3243781 16.4122195,53.3405473 16.3952618,52.7393035 C16.3780549,52.1380597 16.3640898,52.6298507 16.3640898,53.8323383 M92.1406484,52.3748756 C92.1406484,52.7221393 92.1583541,52.8644279 92.1800499,52.6905473 C92.2017456,52.5169154 92.2017456,52.2328358 92.1800499,52.0589552 C92.1583541,51.8853234 92.1406484,52.0273632 92.1406484,52.3748756 M16.2563591,57.5248756 C16.2563591,57.8721393 16.2738155,58.0144279 16.2955112,57.840796 C16.317207,57.6669154 16.317207,57.3828358 16.2955112,57.2089552 C16.2738155,57.0353234 16.2563591,57.1776119 16.2563591,57.5248756 M42.2620948,57.5733831 C42.2628429,57.840796 42.2817955,57.9385572 42.3042394,57.790796 C42.3264339,57.6430348 42.3259352,57.4243781 42.3027431,57.3049751 C42.2798005,57.1853234 42.2613466,57.3062189 42.2620948,57.5733831 M97.1977556,59.3711443 C97.1977556,59.558209 97.2177057,59.6345771 97.2421446,59.5410448 C97.2665835,59.4475124 97.2665835,59.2945274 97.2421446,59.200995 C97.2177057,59.1074627 97.1977556,59.1840796 97.1977556,59.3711443 M97.1002494,61.2174129 C97.1002494,61.4044776 97.1201995,61.4808458 97.1448878,61.3873134 C97.1693267,61.2937811 97.1693267,61.140796 97.1448878,61.0472637 C97.1201995,60.9537313 97.1002494,61.0303483 97.1002494,61.2174129 M15.9593516,62.3833333 C15.9593516,62.6238806 15.9783042,62.7223881 16.0014963,62.60199 C16.0246883,62.4818408 16.0246883,62.2850746 16.0014963,62.1646766 C15.9783042,62.0445274 15.9593516,62.1427861 15.9593516,62.3833333 M97.0104738,63.6952736 C97.0109726,64.0159204 97.0291771,64.1353234 97.0508728,63.9606965 C97.0725686,63.7860697 97.0720698,63.5236318 97.0498753,63.3776119 C97.0276808,63.231592 97.0097257,63.3746269 97.0104738,63.6952736 M79.9087282,64.8828358 C80.082793,64.9044776 80.367581,64.9044776 80.5418953,64.8828358 C80.7159601,64.8614428 80.5735661,64.8437811 80.225187,64.8437811 C79.8770574,64.8437811 79.734414,64.8614428 79.9087282,64.8828358 M77.132419,64.9768657 C77.2261845,65.0012438 77.3795511,65.0012438 77.4733167,64.9768657 C77.5670823,64.9524876 77.4902743,64.9323383 77.3027431,64.9323383 C77.115212,64.9323383 77.0386534,64.9524876 77.132419,64.9768657 M74.8917706,65.0738806 C74.9855362,65.0985075 75.1391521,65.0985075 75.2329177,65.0738806 C75.3266833,65.0495025 75.2498753,65.029602 75.0623441,65.029602 C74.874813,65.029602 74.798005,65.0495025 74.8917706,65.0738806 M71.9224439,65.1746269 C72.0975062,65.1962687 72.3605985,65.1957711 72.5069825,65.1736318 C72.6533666,65.1514925 72.5102244,65.1338308 72.1887781,65.1343284 C71.8673317,65.1348259 71.7473815,65.1529851 71.9224439,65.1746269 M96.9092269,65.4927861 C96.9092269,65.7333333 96.9284289,65.8318408 96.9516209,65.7114428 C96.974813,65.5912935 96.974813,65.3945274 96.9516209,65.2741294 C96.9284289,65.1539801 96.9092269,65.2522388 96.9092269,65.4927861 M66.7104738,65.2711443 C66.8586035,65.2932836 67.0778055,65.2927861 67.1975062,65.2696517 C67.3174564,65.2467662 67.1962594,65.2283582 66.9284289,65.2291045 C66.6605985,65.2298507 66.5625935,65.2487562 66.7104738,65.2711443 M54.7778055,65.3689055 C54.9528678,65.3905473 55.2159601,65.3900498 55.3623441,65.3679104 C55.5087282,65.3457711 55.365586,65.3281095 55.0441397,65.328607 C54.7226933,65.3291045 54.6027431,65.3472637 54.7778055,65.3689055 M64.7122195,65.3671642 C64.8326683,65.3902985 65.0301746,65.3902985 65.1506234,65.3671642 C65.2710723,65.3440299 65.1725686,65.3248756 64.9314214,65.3248756 C64.6902743,65.3248756 64.5917706,65.3440299 64.7122195,65.3671642 M57.6027431,65.4661692 C57.7780549,65.4878109 58.0408978,65.4873134 58.1872818,65.4651741 C58.3336658,65.4430348 58.1905237,65.4251244 57.8690773,65.4258706 C57.5476309,65.4263682 57.4276808,65.4445274 57.6027431,65.4661692 M62.6179551,65.4664179 C62.8187032,65.4873134 63.1476309,65.4873134 63.3483791,65.4664179 C63.5493766,65.4455224 63.3850374,65.4283582 62.9832918,65.4283582 C62.5812968,65.4283582 62.4169576,65.4455224 62.6179551,65.4664179 M36.2605985,71.99801 C36.4610973,72.1196517 36.584788,72.2825871 36.6114713,72.459204 L36.6526185,72.7320896 L36.6670823,72.4718905 C36.6815461,72.2149254 36.3089776,71.8084577 36.0598504,71.809204 C36,71.8094527 36.0905237,71.8942786 36.2605985,71.99801 M66.2221945,72.1731343 C66.9052369,72.189801 68.0229426,72.189801 68.7062344,72.1731343 C69.3892768,72.1562189 68.8304239,72.1427861 67.4640898,72.1427861 C66.098005,72.1427861 65.5391521,72.1562189 66.2221945,72.1731343 M82.1004988,72.1731343 C83.4800499,72.1885572 85.7376559,72.1885572 87.117207,72.1731343 C88.4967581,72.1579602 87.3680798,72.1455224 84.6087282,72.1455224 C81.8496259,72.1455224 80.7206983,72.1579602 82.1004988,72.1731343 M61.2553616,72.2674129 C61.4034913,72.2895522 61.6226933,72.2890547 61.742394,72.2659204 C61.8623441,72.2430348 61.7411471,72.2246269 61.4733167,72.2253731 C61.2054863,72.2261194 61.1074813,72.2450249 61.2553616,72.2674129 M62.9034913,72.8534826 C62.921197,72.9470149 63.3735661,73.3218905 63.9092269,73.6865672 C65.4563591,74.7400498 65.5194514,74.7659204 66.6845387,74.8211443 L67.7072319,74.8699005 L68.1236908,75.6455224 C69.0481297,77.3664179 70.2845387,77.9027363 72.3089776,77.4606965 C72.5643392,77.4049751 72.9299252,77.3343284 73.1214464,77.3037313 C73.313217,77.2731343 73.5541147,77.1803483 73.6573566,77.0975124 C73.8605985,76.9343284 73.9897756,76.9330846 71.5992519,77.1176617 C69.9306733,77.2465174 68.6793017,76.4221393 68.5760599,75.1261194 C68.5319202,74.5701493 68.0027431,74.3567164 67.1112219,74.5355721 C66.4274314,74.6726368 65.9089776,74.4636816 64.7189526,73.571393 C63.6309227,72.7554726 62.8249377,72.4368159 62.9034913,72.8534826 M35.2044888,74.2223881 C33.8441397,75.6129353 33.2466334,76.0962687 32.6124688,76.3196517 C32.4092269,76.3910448 31.959601,76.5813433 31.6129676,76.7425373 C29.3875312,77.7776119 27.6586035,77.7059701 25.738404,76.499005 L24.7486284,75.8771144 L24.1154613,75.9189055 C23.2842893,75.9738806 21.7578554,76.5756219 20.6865337,77.270398 C20.2418953,77.5589552 19.7027431,77.8669154 19.4882793,77.9549751 C19.2740648,78.0430348 18.7735661,78.2497512 18.3760599,78.4141791 C17.9785536,78.578607 17.2114713,78.8271144 16.6713217,78.9661692 C11.4887781,80.3004975 6.21496259,84.5840796 2.84413965,90.1962687 C2.26508728,91.1604478 1.22493766,93.2527363 1.29177057,93.319403 C1.31995012,93.3475124 1.25336658,93.6679104 1.14389027,94.031592 C0.901995012,94.8343284 0.758354115,95.6549751 0.717955112,96.4664179 L0.687780549,97.0741294 L28.9374065,97.0495025 C44.474813,97.0358209 58.4583541,97.0246269 60.0119701,97.0246269 C61.5658354,97.0246269 62.7421446,97.011194 62.6261845,96.9947761 C62.4815461,96.9741294 62.3648379,96.8368159 62.2546135,96.5574627 C62.1663342,96.3333333 61.684788,95.3848259 61.1845387,94.4497512 C60.6842893,93.5144279 60.1336658,92.4708955 59.9610973,92.130597 C59.6119701,91.4427861 59.7241895,91.478607 58.5753117,91.6878109 C58.1049875,91.7733831 58.09202,91.5922886 58.5022444,90.6599502 C59.3708229,88.6860697 58.2478803,86.4721393 56.0374065,85.8 C55.4269327,85.6144279 55.380798,85.5813433 55.4516209,85.3840796 C55.4937656,85.2661692 55.519202,85.0169154 55.5077307,84.8298507 C55.3431421,82.1455224 55.2276808,82.5077114 56.4334165,81.9201493 C57.265586,81.5144279 57.5523691,81.2825871 57.0408978,81.4288557 C56.767581,81.5069652 56.1705736,81.8126866 55.4224439,82.2572139 C55.1057357,82.4455224 53.8603491,82.288806 51.5371571,81.768408 C50.755611,81.5932836 45.4620948,80.8002488 44.398005,80.6987562 C43.4720698,80.6104478 43.2354115,80.7139303 42.8341646,81.3833333 C42.4174564,82.0783582 42.3910224,82.0751244 40.6895262,81.1211443 C39.0289277,80.189801 38.9369077,80.1766169 38.115212,80.7502488 C33.5755611,83.9191542 30.9541147,85.1522388 28.4990025,85.2736318 C26.9710723,85.349005 26.0725686,85.4885572 24.4563591,85.90199 C17.9109726,87.5766169 14.2229426,87.811194 13.1052369,86.6243781 C12.7857855,86.2853234 12.9102244,86.1422886 13.7753117,85.8547264 C15.1506234,85.39801 15.0366584,85.2485075 12.9129676,84.7228856 C11.2386534,84.3084577 11.3645885,84.2597015 10.9970075,85.4614428 L10.8187032,86.0442786 L10.1855362,86.1236318 C6.79975062,86.54801 5.54538653,87.6139303 3.30249377,91.9718905 C2.25137157,94.0141791 1.41845387,95.1059701 1.41820449,94.4415423 C1.41820449,93.6723881 3.39476309,90.3067164 5.12992519,88.1211443 C8.3286783,84.0920398 12.1703242,81.4360697 16.4852868,80.270398 C18.0122195,79.8577114 18.3578554,79.7134328 20.2493766,78.6972637 C22.9082294,77.2691542 23.4254364,77.0562189 24.2346633,77.0562189 C24.7815461,77.0562189 24.8952618,77.1072139 25.7882793,77.7552239 C27.4665835,78.9728856 29.8074813,78.9845771 31.9571072,77.7863184 C33.1987531,77.0942786 35.6284289,75.0358209 36.1735661,74.2141791 C36.3620948,73.9298507 36.646384,72.8778607 36.5346633,72.8778607 C36.5264339,72.8778607 35.9279302,73.4828358 35.2044888,74.2223881 M72.7705736,75.2141791 C72.6640898,75.3860697 72.927182,75.5985075 73.2478803,75.5992537 C73.9498753,75.6007463 78.9623441,77.0047264 81.2783042,77.8485075 C85.4531172,79.369403 87.1289277,80.5723881 90.3074813,84.3313433 C92.2316708,86.6069652 93.3144638,89.0136816 93.6182045,91.6910448 C93.6541147,92.0057214 93.7653367,92.5256219 93.8658354,92.8462687 C93.9663342,93.1669154 94.0997506,93.800995 94.1625935,94.2552239 C94.3119701,95.3370647 94.5179551,95.8609453 94.6678304,95.540796 C94.7466334,95.3726368 94.7102244,95.0044776 94.5139651,93.9860697 C94.3725686,93.2524876 94.2082294,92.3676617 94.1488778,92.020398 C94.0471322,91.4256219 93.3493766,88.5057214 93.0389027,87.3758706 C92.9516209,87.0584577 92.6461347,86.4995025 92.2421446,85.9181592 C91.8817955,85.3997512 91.4094763,84.7131841 91.1925187,84.3925373 C89.8917706,82.4691542 86.3199501,79.3985075 84.219202,78.3975124 C83.4117207,78.0129353 79.0057357,76.5022388 78.423192,76.410199 C78.2623441,76.3848259 77.6266833,76.2310945 77.0107232,76.0681592 C73.4311721,75.1223881 72.8942643,75.0141791 72.7705736,75.2141791 M59.4990025,75.7930348 C59.4990025,75.9798507 59.5189526,76.0564677 59.5433915,75.9629353 C59.5680798,75.869403 59.5680798,75.7164179 59.5433915,75.6228856 C59.5189526,75.5293532 59.4990025,75.6059701 59.4990025,75.7930348 M63.2880299,97.4097015 C63.3127182,97.4345771 63.7256858,97.5835821 64.2052369,97.7412935 C64.6850374,97.8987562 65.1653367,98.0567164 65.2723192,98.0922886 C65.4394015,98.1475124 65.4441397,98.141791 65.3052369,98.0522388 C65.0438903,97.8833333 63.1620948,97.2840796 63.2880299,97.4097015 M1.00548628,98.2109453 C1.12668329,98.2340796 1.30199501,98.2330846 1.39501247,98.2089552 C1.4882793,98.1845771 1.38902743,98.1654229 1.17481297,98.1666667 C0.960598504,98.1676617 0.884289277,98.1875622 1.00548628,98.2109453 M18.2054863,98.2149254 C24.5720698,98.2288557 34.9610973,98.2288557 41.2922693,98.2149254 C47.6234414,98.2012438 42.4144638,98.189801 29.7167082,98.189801 C17.0189526,98.189801 11.8389027,98.2012438 18.2054863,98.2149254 M63.1084788,98.2139303 C63.4184539,98.2333333 63.9007481,98.2330846 64.1800499,98.2136816 C64.4593516,98.1940299 64.2057357,98.1781095 63.6164589,98.1783582 C63.0269327,98.178607 62.7985037,98.1947761 63.1084788,98.2139303" id="path3" fill="#5D748F"></path>
                <path d="M86.7032419,17.4838308 C84.5448878,18.5017413 78.9812968,23.4798507 75.9438903,27.1104478 C75.4299252,27.7251244 74.5438903,28.7746269 73.974813,29.4425373 C70.0281796,34.0773632 65.7394015,41.3427861 65.2755611,44.179602 C65.1985037,44.6507463 64.9214464,44.971393 64.7620948,44.7736318 C64.4234414,44.3534826 61.8755611,39.9927861 60.9426434,38.2365672 C60.6588529,37.7022388 60.3279302,37.1554726 60.2072319,37.0218905 C60.086783,36.8883085 59.759601,36.3962687 59.4802993,35.9288557 C59.2009975,35.461194 58.9319202,35.078607 58.8825436,35.078607 C58.7428928,35.078607 57.1533666,35.9457711 56.5349127,36.3594527 C56.2296758,36.5634328 55.9411471,36.7303483 55.8932668,36.7303483 C55.8453865,36.7303483 55.5690773,36.89801 55.2790524,37.1027363 C54.765586,37.4651741 54.3289277,37.7089552 50.6431421,39.6885572 C48.001995,41.1074627 47.9124688,41.2131841 49.0448878,41.580597 C51.8102244,42.4776119 54.9117207,44.8708955 59.7249377,49.8218905 C62.6715711,52.8529851 64.3229426,54.4333333 64.8892768,54.7644279 L65.3496259,55.0335821 L65.5660848,54.7825871 C65.6850374,54.6445274 65.994015,54.1883085 66.2523691,53.7689055 C68.4643392,50.1793532 68.6603491,49.8995025 71.1067332,46.8360697 C73.9987531,43.2149254 76.4972569,40.5042289 79.917207,37.2778607 C82.3708229,34.9634328 86.3548628,31.9164179 87.7668329,31.2748756 C87.9049875,31.2119403 88.0182045,31.1129353 88.0182045,31.0547264 C88.0182045,30.8412935 87.6294264,27.9783582 87.3311721,25.9930348 C86.9698254,23.5900498 87.013217,20.0514925 87.423192,18.5109453 C87.5695761,17.960199 87.561596,17.19801 87.4094763,17.2037313 C87.342394,17.2059701 87.0246883,17.3320896 86.7032419,17.4838308" id="path4" fill="#32AA04"></path>
                <path d="M50.0281796,8.80845771 C48.1820449,8.98557214 46.7007481,9.53109453 45.8628429,10.3422886 C45.2690773,10.9169154 44.1194514,13.270398 43.8394015,14.4843284 C43.5930175,15.55199 43.0775561,22.4271144 42.9653367,26.1447761 C42.9329177,27.2134328 42.8875312,28.5910448 42.8643392,29.2054726 C42.8413965,29.8201493 42.7778055,31.8097015 42.723192,33.6268657 C42.6688279,35.4437811 42.5842893,38.0893035 42.5356608,39.5057214 C42.4236908,42.7629353 42.3802993,46.728607 42.3802993,53.7410448 L42.3802993,59.2798507 L42.6104738,60.0216418 C43.2189526,61.9843284 45.2516209,63.6303483 48.0433915,64.4216418 C48.7857855,64.6320896 49.6234414,64.7952736 52.8523691,65.3587065 C54.2965087,65.6106965 62.2167082,65.7328358 64.9314214,65.5450249 C65.6546135,65.4950249 68.4089776,65.4099502 71.0518703,65.3559701 C73.6947631,65.30199 75.8925187,65.2358209 75.9361596,65.2089552 C76.6114713,64.7925373 85.0753117,65.2007463 87.2017456,65.7522388 C88.8329177,66.1753731 88.698005,66.2288557 89.3673317,64.8912935 C90.763591,62.1007463 91.7002494,58.109204 92.0069825,53.6437811 C92.065586,52.788806 92.1790524,51.30199 92.2588529,50.3400498 C92.3832918,48.8378109 92.5182045,45.75 92.7488778,39.1169154 C92.9206983,34.1773632 93.0985037,30.6925373 93.2199501,29.8858209 C93.2965087,29.3781095 93.40798,28.1318408 93.4680798,27.1164179 C93.5281796,26.100995 93.6453865,24.6291045 93.7284289,23.8455224 C94.1057357,20.2915423 93.8334165,16.4781095 93.1022444,15.0776119 C92.0299252,13.0231343 88.9149626,11.5271144 85.69202,11.5186567 C85.2837905,11.5174129 84.6648379,11.4708955 84.3164589,11.4149254 C83.9683292,11.3589552 81.9518703,11.2781095 79.8356608,11.2353234 C76.5336658,11.1686567 75.8426434,11.128607 74.9648379,10.9542289 C74.0411471,10.7708955 71.4017456,10.4666667 69.363591,10.3087065 C68.5885287,10.2485075 66.7600998,10.0587065 63.2266833,9.67164179 C62.2087282,9.560199 60.4773067,9.40945274 59.378803,9.33681592 C58.2805486,9.26442786 56.9436409,9.1579602 56.4077307,9.10049751 C52.525187,8.68457711 51.7087282,8.64726368 50.0281796,8.80845771 M18.69202,10.3360697 C16.7117207,11.3420398 16.8194514,11.0467662 16.7004988,15.7863184 C16.6488778,17.8492537 16.5685786,19.9524876 16.5224439,20.460199 C16.4760599,20.9679104 16.4339152,23.6788557 16.4284289,26.4848259 C16.423192,29.2905473 16.3760599,31.8457711 16.3241895,32.1626866 C16.2720698,32.4798507 16.2226933,34.2507463 16.2144638,36.0982587 C16.2062344,37.9455224 16.1481297,40.2221393 16.0855362,41.1574627 C16.0221945,42.1027363 15.9830424,44.389801 15.9977556,46.3074627 C16.0122195,48.2047264 15.9850374,49.9975124 15.9376559,50.2915423 C15.8902743,50.5855721 15.8291771,52.7062189 15.8017456,55.0042289 C15.7743142,57.3022388 15.7291771,60.1604478 15.7014963,61.3557214 C15.6426434,63.8992537 15.6765586,64.0537313 16.4660848,64.8263682 C17.065586,65.4131841 20.39202,67.109204 22.459601,67.8823383 C24.1264339,68.5054726 26.6690773,69.4721393 27.6710723,69.8639303 C28.2603491,70.0942786 28.9179551,70.3373134 29.1321696,70.4039801 C29.3466334,70.4708955 30.0917706,70.7574627 30.7882793,71.0410448 C31.484788,71.3246269 32.5805486,71.7626866 33.2236908,72.0141791 C35.0643392,72.7345771 35.7770574,73.2353234 35.546384,73.6462687 C35.3932668,73.9189055 34.2099751,75.0890547 33.7107232,75.4616915 C32.8588529,76.0970149 32.4012469,76.5482587 32.6877805,76.4701493 C33.1546135,76.3427861 33.8102244,75.8 35.1925187,74.3955224 C37.084788,72.4733831 37.0905237,72.5400498 34.9710723,71.7835821 C34.2177057,71.5146766 33.2314214,71.1422886 32.7793017,70.9562189 C32.327182,70.7701493 31.5054863,70.4614428 30.9533666,70.270398 C30.4012469,70.0791045 29.5902743,69.7651741 29.1513716,69.5723881 C28.7122195,69.379602 27.3221945,68.8353234 26.0623441,68.3629353 C20.772818,66.379602 16.6331671,64.3711443 16.1164589,63.5373134 C15.8815461,63.1579602 15.880798,63.3539801 16.1319202,58.7452736 C16.1857855,57.7567164 16.2735661,54.7395522 16.3266833,52.0405473 C16.3800499,49.341791 16.4693267,44.990796 16.525187,42.3721393 C16.5810474,39.7534826 16.6311721,37.2390547 16.6366584,36.7848259 C16.6531172,35.4320896 16.8982544,23.8427861 17.0054863,19.3427861 C17.0603491,17.0447761 17.1044888,14.3955224 17.1034913,13.4557214 L17.1017456,11.7472637 L17.4418953,11.4079602 C17.6289277,11.221393 18.2326683,10.84801 18.7835411,10.5781095 C19.7413965,10.1089552 20.2291771,9.76368159 19.9142145,9.77736318 C19.8408978,9.78034826 19.2907731,10.0318408 18.69202,10.3360697 M99.6855362,14.6380597 C99.6064838,14.9186567 99.20798,22.3922886 98.9790524,27.8937811 C98.8261845,31.5651741 98.6770574,34.2136816 98.586783,34.8666667 C98.5399002,35.2059701 98.4047382,38.5281095 98.1471322,45.6758706 C98.0892768,47.2793532 97.9780549,49.1813433 97.8997506,49.9027363 C97.8216958,50.6243781 97.7581047,51.7487562 97.7586035,52.4014925 C97.7591022,53.2191542 97.7127182,53.7263682 97.6089776,54.0310945 C97.5259352,54.2746269 97.4840399,54.5154229 97.5154613,54.5664179 C97.5471322,54.6174129 97.5052369,55.270398 97.4226933,56.0176617 C97.3401496,56.7651741 97.272818,57.8922886 97.2735661,58.5223881 C97.274813,59.8579602 97.1309227,63.3303483 96.9201995,67.0534826 C96.8386534,68.4962687 96.7461347,70.2455224 96.7149626,70.9402985 C96.6249377,72.9363184 96.2588529,73.2263682 94.472818,72.7161692 L93.7169576,72.5002488 L77.8386534,72.5154229 C60.3643392,72.5318408 60.1645885,72.5370647 60.0433915,72.9808458 C59.7027431,74.2268657 59.4723192,77.3049751 59.7199501,77.3049751 C59.8002494,77.3049751 59.8660848,77.2659204 59.8660848,77.2181592 C59.8660848,77.1706468 59.9700748,77.1054726 60.0975062,77.0736318 C60.2249377,77.041791 60.7007481,76.8402985 61.1553616,76.6258706 C62.4785536,76.0014925 62.572818,76.0748756 62.0950125,77.358209 C61.5713217,78.7649254 59.9825436,80.2957711 58.015212,81.289801 C57.7740648,81.4116915 57.4451372,81.6094527 57.2845387,81.7293532 C57.1236908,81.8495025 56.7072319,82.0885572 56.3591022,82.2606965 C55.4144638,82.7278607 55.3945137,82.7549751 55.394015,83.5589552 C55.3937656,83.9529851 55.459601,84.4288557 55.5466334,84.6604478 C55.6683292,84.9845771 55.6775561,85.1323383 55.5910224,85.3793532 C55.4346633,85.8271144 55.4331671,85.8248756 55.9937656,85.9567164 C58.0972569,86.450995 59.5037406,89.1077114 58.5897756,90.860199 C58.4503741,91.1273632 58.3062344,91.469403 58.2695761,91.6201493 L58.2027431,91.8945274 L58.9613466,91.8308458 L59.7199501,91.7671642 L60.3399002,92.9654229 C60.6810474,93.6246269 61.3052369,94.8412935 61.727182,95.669403 C62.6314214,97.4442786 62.3723192,97.2940299 64.7366584,97.4141791 C66.6371571,97.5109453 89.2528678,97.5425373 92.4396509,97.4527363 L94.4745636,97.3955224 L94.4164589,96.6442786 C94.3845387,96.2310945 94.2289277,95.3291045 94.0705736,94.639801 C93.9122195,93.9504975 93.6880299,92.7791045 93.5725686,92.0365672 C93.0276808,88.5328358 92.2598504,86.9233831 89.7341646,83.9912935 C87.3688279,81.2452736 85.8713217,80.0629353 83.3738155,78.969403 C81.0224439,77.9400498 75.7815461,76.3358209 73.4773067,75.9400498 C73.0296758,75.8631841 72.7880299,75.7716418 72.7256858,75.6554726 C72.4613466,75.1626866 73.1885287,75.2512438 76.3286783,76.0945274 C78.4216958,76.6562189 78.6077307,76.691791 78.5501247,76.5179104 C78.4104738,76.0972637 73.1074813,74.7430348 72.361596,74.9375622 C72.0972569,75.0067164 71.732419,75.5955224 71.7578554,75.9124378 C71.8294264,76.8109453 71.7695761,77.0136816 71.4336658,77.0097015 C70.1498753,76.9952736 69.3935162,76.5922886 69.115212,75.7743781 C69.0438903,75.5649254 68.9446384,75.4587065 68.8204489,75.4587065 C68.5790524,75.4587065 68.5840399,75.6126866 68.8406484,76.091791 C69.4301746,77.1912935 70.4209476,77.4788557 72.694015,77.210199 C74.413217,77.0067164 74.2199501,77.4291045 72.4543641,77.7330846 C70.0411471,78.1485075 68.9581047,77.7057214 68.1017456,75.9534826 L67.7174564,75.1671642 L66.8054863,75.1671642 C65.7174564,75.1671642 65.4284289,75.05 63.8598504,73.9738806 C62.7374065,73.2039801 62.5092269,72.8512438 63.1763092,72.9171642 C63.6226933,72.961194 63.8548628,73.0880597 64.8685786,73.8420398 C65.9,74.609204 66.4723192,74.8268657 67.0930175,74.6880597 C67.3321696,74.6345771 67.6887781,74.6169154 67.8855362,74.6487562 C68.1179551,74.6863184 68.2433915,74.6689055 68.2433915,74.5987562 C68.2433915,74.4412935 67.8413965,74.3656716 67.2817955,74.4181592 C66.6738155,74.4751244 65.9917706,74.3532338 65.6431421,74.1258706 L65.3778055,73.9524876 L66.1531172,73.8470149 C66.6094763,73.7848259 68.6309227,73.7410448 71.0683292,73.740796 C73.3453865,73.7405473 78.8249377,73.6845771 83.2451372,73.6161692 C91.3945137,73.489801 93.7758105,73.5164179 94.0408978,73.7358209 C94.1316708,73.811194 94.513217,73.8552239 95.0713217,73.8552239 C96.8336658,73.8552239 97.1296758,73.1746269 97.163591,69.0455224 C97.1710723,68.110199 97.198005,67.1699005 97.2229426,66.9562189 C97.2478803,66.7425373 97.3349127,65.2517413 97.4162095,63.6435323 C97.4975062,62.0353234 97.6299252,59.849005 97.7104738,58.7850746 C97.7907731,57.7211443 97.8571072,56.4569652 97.857606,55.9758706 C97.8581047,55.4950249 97.9244389,54.6039801 98.0049875,53.9962687 C98.0852868,53.3883085 98.146384,52.2654229 98.140399,51.5007463 C98.1341646,50.7360697 98.1650873,50.0529851 98.2089776,49.9823383 C98.2985037,49.8385572 98.3932668,47.7293532 98.5289277,42.8579602 C98.6531172,38.4034826 98.8099751,34.8562189 98.9341646,33.7037313 C98.9905237,33.1803483 99.0700748,31.6350746 99.1107232,30.2696517 C99.1516209,28.9039801 99.2197007,27.7310945 99.2618454,27.6629353 C99.30399,27.5950249 99.3528678,26.6569652 99.3700748,25.5788557 C99.3875312,24.5004975 99.4458853,23.3977612 99.4997506,23.128607 C99.5533666,22.859204 99.6072319,21.9629353 99.619202,21.1365672 C99.6311721,20.310199 99.678803,19.2495025 99.725187,18.7791045 C99.8236908,17.7810945 99.7900249,14.2681592 99.6855362,14.6380597 M87.5306733,18.0067164 C87.5304239,18.3674129 87.4875312,18.8156716 87.4356608,19.0027363 C87.3296758,19.3835821 87.1638404,21.0552239 87.078803,22.59801 C87.0226933,23.620398 87.213217,25.5159204 87.5917706,27.6995025 C87.7972569,28.8848259 88.1004988,31.279602 88.0548628,31.3584577 C88.0346633,31.3932836 87.8099751,31.5432836 87.5553616,31.691791 C84.0386534,33.7412935 77.7962594,39.2256219 74.1269327,43.4895522 C71.4892768,46.5544776 68.5887781,50.3077114 67.561596,51.9843284 C65.3995012,55.5136816 65.513217,55.3746269 64.9930175,55.1271144 C64.5119701,54.8982587 62.2428928,52.7517413 59.5738155,50.0004975 C57.517207,47.880597 55.6416459,46.1042289 54.1187032,44.8340796 C52.9359102,43.8477612 50.0573566,42.1676617 49.1506234,41.9345771 C47.759601,41.5768657 48.0845387,41.1970149 51.1476309,39.6004975 C53.0852868,38.5905473 55.0912718,37.4788557 55.3810474,37.2542289 C55.6830424,37.020398 56.5204489,36.519403 57.6259352,35.9114428 C58.0817955,35.6606965 58.5566085,35.3940299 58.6815461,35.3186567 C58.9481297,35.1574627 58.9620948,35.1716418 59.5915212,36.2504975 C59.8099751,36.6243781 60.0862843,37.039801 60.2054863,37.1736318 C60.3249377,37.3072139 60.6558603,37.8537313 60.9408978,38.3880597 C61.8162095,40.0288557 64.2907731,44.2763682 64.7533666,44.9323383 L64.9144638,45.1604478 L65.057606,44.9323383 C65.1361596,44.8069652 65.2289277,44.5144279 65.2633416,44.2825871 C65.642394,41.7360697 70.1127182,34.1241294 73.6685786,29.970398 C73.9261845,29.669403 74.5725686,28.9042289 75.1049875,28.2699005 C78.8391521,23.8211443 84.2977556,18.8348259 86.7004988,17.6778607 C87.5720698,17.258209 87.5311721,17.2420398 87.5306733,18.0067164 M93.0837905,87.6412935 C93.0837905,87.7146766 93.1518703,87.9661692 93.2351621,88.2 C93.4583541,88.8258706 94.0311721,91.2587065 94.2112219,92.3452736 C94.2972569,92.8644279 94.4548628,93.4741294 94.5610973,93.6997512 C94.667581,93.9253731 94.8124688,94.4502488 94.8832918,94.8659204 C94.9541147,95.2813433 95.1057357,96.1462687 95.2201995,96.7875622 L95.4281796,97.9534826 L95.1645885,98.1649254 C94.638404,98.5868159 95.8546135,98.5761194 47.7371571,98.5783582 C0.782294264,98.5808458 0.480548628,98.578607 0.50872818,98.2542289 C0.517206983,98.1544776 0.577306733,97.4569652 0.641895262,96.7042289 C0.714962594,95.8564677 0.847880299,95.0412935 0.991521197,94.5624378 C1.28528678,93.5835821 1.29226933,93.4206468 1.02842893,93.6835821 C0.51446384,94.1965174 -0.0189526185,98.4378109 0.345137157,99.1166667 C0.689276808,99.7577114 -3.81870324,99.7 47.9745636,99.7276119 L94.676808,99.7527363 L95.001995,99.5333333 C95.8503741,98.9609453 95.9017456,97.9487562 95.225187,95.1355721 C94.8149626,93.429602 94.5354115,92.0495025 94.3573566,90.8475124 C94.1583541,89.5054726 93.0837905,86.8004975 93.0837905,87.6412935" id="path5" fill="#ECEAE7"></path>
            </g>
        </g>
    </g>
</svg>